{"asset":{"version":"2.0","generator":"babylon.js glTF exporter for 3ds max 2019 v1.3.33"},"scene":0,"scenes":[{"nodes":[0,1],"extensions":{}}],"nodes":[{"mesh":0,"translation":[0.0,0.0,0.0],"rotation":[1.54543116E-08,-0.7071068,-1.545431E-08,0.7071067],"scale":[6.48671341,6.48671341,6.48671341],"name":"build2_2"},{"translation":[0.0,0.0,0.0],"rotation":[0.0,0.0,0.0,1.0],"scale":[1.0,1.0,1.0],"name":"Default light"}],"meshes":[{"primitives":[{"attributes":{"POSITION":1,"NORMAL":2,"COLOR_0":3,"TEXCOORD_0":4},"indices":0,"mode":4,"material":0}],"name":"build2_2"}],"accessors":[{"bufferView":0,"componentType":5123,"count":2184,"type":"SCALAR","name":"accessorIndices"},{"bufferView":1,"componentType":5126,"count":2184,"max":[0.7712033,0.837584853,0.80781734],"min":[-0.7712033,-0.00049113913,-0.80781734],"type":"VEC3","name":"accessorPositions"},{"bufferView":1,"byteOffset":26208,"componentType":5126,"count":2184,"type":"VEC3","name":"accessorNormals"},{"bufferView":2,"componentType":5126,"count":2184,"type":"VEC4","name":"accessorColors"},{"bufferView":3,"componentType":5126,"count":2184,"type":"VEC2","name":"accessorUVs"}],"bufferViews":[{"buffer":0,"byteLength":4368,"name":"bufferViewScalar"},{"buffer":0,"byteOffset":4368,"byteLength":52416,"byteStride":12,"name":"bufferViewFloatVec3"},{"buffer":0,"byteOffset":56784,"byteLength":34944,"byteStride":16,"name":"bufferViewFloatVec4"},{"buffer":0,"byteOffset":91728,"byteLength":17472,"byteStride":8,"name":"bufferViewFloatVec2"}],"buffers":[{"uri":"scene.bin","byteLength":109200}],"materials":[{"pbrMetallicRoughness":{"baseColorFactor":[1.0,1.0,1.0,1.0],"baseColorTexture":{"index":0,"texCoord":0},"metallicFactor":0.1666668,"roughnessFactor":0.99},"emissiveFactor":[0.0,0.0,0.0],"alphaMode":"OPAQUE","name":"build2_3_red"}],"textures":[{"sampler":0,"source":0,"name":"build2_3_red.bmp"}],"images":[{"uri":"build2_3_red.bmp"}],"samplers":[{"magFilter":9729,"minFilter":9987,"wrapS":10497,"wrapT":10497}]}