{"asset":{"version":"2.0","generator":"babylon.js glTF exporter for 3ds max 2019 v1.3.33"},"scene":0,"scenes":[{"nodes":[0,1],"extensions":{}}],"nodes":[{"mesh":0,"translation":[0.0,-2.23334312,0.0],"rotation":[0.0415839441,0.0,0.0,0.9991351],"scale":[1.0,1.0,1.0],"name":"VP_Free_Iphone"},{"translation":[0.0,0.0,0.0],"rotation":[0.0,0.0,0.0,1.0],"scale":[1.0,1.0,1.0],"name":"Default light"}],"meshes":[{"primitives":[{"attributes":{"POSITION":1,"NORMAL":2,"TEXCOORD_0":3},"indices":0,"mode":4,"material":0},{"attributes":{"POSITION":5,"NORMAL":6,"TEXCOORD_0":7},"indices":4,"mode":4,"material":1},{"attributes":{"POSITION":9,"NORMAL":10,"TEXCOORD_0":11},"indices":8,"mode":4,"material":2},{"attributes":{"POSITION":13,"NORMAL":14,"TEXCOORD_0":15},"indices":12,"mode":4,"material":3},{"attributes":{"POSITION":17,"NORMAL":18,"TEXCOORD_0":19},"indices":16,"mode":4,"material":4},{"attributes":{"POSITION":21,"NORMAL":22,"TEXCOORD_0":23},"indices":20,"mode":4,"material":5},{"attributes":{"POSITION":25,"NORMAL":26,"TEXCOORD_0":27},"indices":24,"mode":4,"material":6},{"attributes":{"POSITION":29,"NORMAL":30,"TEXCOORD_0":31},"indices":28,"mode":4,"material":7},{"attributes":{"POSITION":33,"NORMAL":34,"TEXCOORD_0":35},"indices":32,"mode":4,"material":8},{"attributes":{"POSITION":37,"NORMAL":38,"TEXCOORD_0":39},"indices":36,"mode":4,"material":9}],"name":"VP_Free_Iphone"}],"accessors":[{"bufferView":0,"componentType":5125,"count":105978,"type":"SCALAR","name":"accessorIndices"},{"bufferView":1,"componentType":5126,"count":105978,"max":[3.575207,16.9374447,1.398804],"min":[-3.612018,2.593523,-0.515897155],"type":"VEC3","name":"accessorPositions"},{"bufferView":1,"byteOffset":1271736,"componentType":5126,"count":105978,"type":"VEC3","name":"accessorNormals"},{"bufferView":2,"componentType":5126,"count":105978,"type":"VEC2","name":"accessorUVs"},{"bufferView":0,"byteOffset":423912,"componentType":5125,"count":31920,"type":"SCALAR","name":"accessorIndices"},{"bufferView":1,"byteOffset":2543472,"componentType":5126,"count":31920,"max":[3.434021,16.8445587,1.452412],"min":[-3.470834,2.73346329,-0.5125389],"type":"VEC3","name":"accessorPositions"},{"bufferView":1,"byteOffset":2926512,"componentType":5126,"count":31920,"type":"VEC3","name":"accessorNormals"},{"bufferView":2,"byteOffset":847824,"componentType":5126,"count":31920,"type":"VEC2","name":"accessorUVs"},{"bufferView":0,"byteOffset":551592,"componentType":5125,"count":5292,"type":"SCALAR","name":"accessorIndices"},{"bufferView":1,"byteOffset":3309552,"componentType":5126,"count":5292,"max":[0.714592,3.41591215,1.215466],"min":[-0.748368,2.59973025,1.08690584],"type":"VEC3","name":"accessorPositions"},{"bufferView":1,"byteOffset":3373056,"componentType":5126,"count":5292,"type":"VEC3","name":"accessorNormals"},{"bufferView":2,"byteOffset":1103184,"componentType":5126,"count":5292,"type":"VEC2","name":"accessorUVs"},{"bufferView":0,"byteOffset":572760,"componentType":5125,"count":18276,"type":"SCALAR","name":"accessorIndices"},{"bufferView":1,"byteOffset":3436560,"componentType":5126,"count":18276,"max":[3.433899,16.8427086,1.431527],"min":[-3.470712,2.729244,-0.483998865],"type":"VEC3","name":"accessorPositions"},{"bufferView":1,"byteOffset":3655872,"componentType":5126,"count":18276,"type":"VEC3","name":"accessorNormals"},{"bufferView":2,"byteOffset":1145520,"componentType":5126,"count":18276,"type":"VEC2","name":"accessorUVs"},{"bufferView":0,"byteOffset":645864,"componentType":5125,"count":10176,"type":"SCALAR","name":"accessorIndices"},{"bufferView":1,"byteOffset":3875184,"componentType":5126,"count":10176,"max":[2.608074,16.5757446,1.24857807],"min":[-1.448451,2.587701,-0.459225923],"type":"VEC3","name":"accessorPositions"},{"bufferView":1,"byteOffset":3997296,"componentType":5126,"count":10176,"type":"VEC3","name":"accessorNormals"},{"bufferView":2,"byteOffset":1291728,"componentType":5126,"count":10176,"type":"VEC2","name":"accessorUVs"},{"bufferView":0,"byteOffset":686568,"componentType":5125,"count":7800,"type":"SCALAR","name":"accessorIndices"},{"bufferView":1,"byteOffset":4119408,"componentType":5126,"count":7800,"max":[3.20027,16.6163445,1.431527],"min":[-3.237083,2.96831,0.21057108],"type":"VEC3","name":"accessorPositions"},{"bufferView":1,"byteOffset":4213008,"componentType":5126,"count":7800,"type":"VEC3","name":"accessorNormals"},{"bufferView":2,"byteOffset":1373136,"componentType":5126,"count":7800,"type":"VEC2","name":"accessorUVs"},{"bufferView":0,"byteOffset":717768,"componentType":5125,"count":10080,"type":"SCALAR","name":"accessorIndices"},{"bufferView":1,"byteOffset":4306608,"componentType":5126,"count":10080,"max":[2.476968,16.4965782,0.249652892],"min":[-1.377184,14.321723,-0.45183894],"type":"VEC3","name":"accessorPositions"},{"bufferView":1,"byteOffset":4427568,"componentType":5126,"count":10080,"type":"VEC3","name":"accessorNormals"},{"bufferView":2,"byteOffset":1435536,"componentType":5126,"count":10080,"type":"VEC2","name":"accessorUVs"},{"bufferView":0,"byteOffset":758088,"componentType":5125,"count":6,"type":"SCALAR","name":"accessorIndices"},{"bufferView":1,"byteOffset":4548528,"componentType":5126,"count":6,"max":[2.637517,15.3224306,-0.349279076],"min":[2.076132,14.8370037,-0.391749],"type":"VEC3","name":"accessorPositions"},{"bufferView":1,"byteOffset":4548600,"componentType":5126,"count":6,"type":"VEC3","name":"accessorNormals"},{"bufferView":2,"byteOffset":1516176,"componentType":5126,"count":6,"type":"VEC2","name":"accessorUVs"},{"bufferView":0,"byteOffset":758112,"componentType":5125,"count":24,"type":"SCALAR","name":"accessorIndices"},{"bufferView":1,"byteOffset":4548672,"componentType":5126,"count":24,"max":[2.340341,16.5249519,1.230041],"min":[-2.395177,2.634252,-0.348918051],"type":"VEC3","name":"accessorPositions"},{"bufferView":1,"byteOffset":4548960,"componentType":5126,"count":24,"type":"VEC3","name":"accessorNormals"},{"bufferView":2,"byteOffset":1516224,"componentType":5126,"count":24,"type":"VEC2","name":"accessorUVs"},{"bufferView":0,"byteOffset":758208,"componentType":5125,"count":1014,"type":"SCALAR","name":"accessorIndices"},{"bufferView":1,"byteOffset":4549248,"componentType":5126,"count":1014,"max":[3.549176,16.9374447,1.287754],"min":[-3.585663,3.949006,-0.370381922],"type":"VEC3","name":"accessorPositions"},{"bufferView":1,"byteOffset":4561416,"componentType":5126,"count":1014,"type":"VEC3","name":"accessorNormals"},{"bufferView":2,"byteOffset":1516416,"componentType":5126,"count":1014,"type":"VEC2","name":"accessorUVs"}],"bufferViews":[{"buffer":0,"byteLength":762264,"name":"bufferViewScalar"},{"buffer":0,"byteOffset":762264,"byteLength":4573584,"byteStride":12,"name":"bufferViewFloatVec3"},{"buffer":0,"byteOffset":5335848,"byteLength":1524528,"byteStride":8,"name":"bufferViewFloatVec2"}],"buffers":[{"uri":"iphone.bin","byteLength":6860376}],"materials":[{"pbrMetallicRoughness":{"baseColorFactor":[0.411583155,0.411583155,0.411583155,1.0],"metallicFactor":0.982283354,"roughnessFactor":0.78},"emissiveFactor":[0.0,0.0,0.0],"alphaMode":"OPAQUE","name":"VP_Free_Iphone_OBJ_CASE"},{"pbrMetallicRoughness":{"baseColorFactor":[0.9999999,0.9999999,0.9999999,0.07999998],"metallicFactor":0.9999998,"roughnessFactor":0.75},"emissiveFactor":[0.0,0.0,0.0],"alphaMode":"BLEND","name":"VP_Free_Iphone_OBJ_GLASS"},{"pbrMetallicRoughness":{"baseColorFactor":[0.6968656,0.6968656,0.6968656,1.0],"metallicFactor":0.9530107,"roughnessFactor":0.91},"emissiveFactor":[0.0,0.0,0.0],"alphaMode":"OPAQUE","name":"VP_Free_Iphone_OBJ_STEEL"},{"pbrMetallicRoughness":{"baseColorFactor":[0.0,0.0,0.0,1.0],"metallicFactor":0.0,"roughnessFactor":0.88},"emissiveFactor":[0.0,0.0,0.0],"alphaMode":"OPAQUE","name":"VP_Free_Iphone_OBJ_BLACK_MAT"},{"pbrMetallicRoughness":{"baseColorFactor":[0.230231553,0.230231553,0.230231553,1.0],"metallicFactor":0.9724991,"roughnessFactor":0.91},"emissiveFactor":[0.0,0.0,0.0],"alphaMode":"OPAQUE","name":"VP_Free_Iphone_OBJ_DARKGRAY_PLASTIC"},{"pbrMetallicRoughness":{"baseColorFactor":[1.0,1.0,1.0,1.0],"baseColorTexture":{"index":0,"texCoord":0},"metallicFactor":0.0,"roughnessFactor":0.9},"occlusionTexture":{"index":0,"texCoord":0},"emissiveFactor":[0.0,0.0,0.0],"alphaMode":"BLEND","name":"VP_Free_Iphone_OBJ_SCREEN"},{"pbrMetallicRoughness":{"baseColorFactor":[0.8156859,0.9999999,0.9999999,0.410000026],"metallicFactor":0.9999999,"roughnessFactor":0.65},"emissiveFactor":[0.0,0.0,0.0],"alphaMode":"BLEND","name":"VP_Free_Iphone_OBJ_LENS"},{"pbrMetallicRoughness":{"baseColorFactor":[1.0,1.0,0.564706,1.0],"metallicFactor":1.0,"roughnessFactor":0.840000033},"emissiveFactor":[0.0,0.0,0.0],"alphaMode":"OPAQUE","name":"VP_Free_Iphone_OBJ_LENS_HOLOGRAM"},{"pbrMetallicRoughness":{"baseColorFactor":[0.666200161,0.6634325,0.6634325,1.0],"baseColorTexture":{"index":3,"texCoord":0},"metallicFactor":0.993037164,"roughnessFactor":0.840000033},"normalTexture":{"index":2,"texCoord":0},"emissiveFactor":[0.0,0.0,0.0],"alphaMode":"BLEND","name":"VP_Free_Iphone_OBJ_SPEAKER_MESH"},{"pbrMetallicRoughness":{"baseColorFactor":[0.008096264,0.008096264,0.008096264,1.0],"metallicFactor":0.0,"roughnessFactor":0.770000041},"emissiveFactor":[0.0,0.0,0.0],"alphaMode":"OPAQUE","name":"VP_Free_Iphone_OBJ_CASE_GLOSS"}],"textures":[{"sampler":0,"source":0,"name":"VP_Free_Iphone_screen_diffuse.jpg"},{"sampler":0,"source":0,"name":"VP_Free_Iphone_screen_diffuse.jpg"},{"sampler":0,"source":1,"name":"Map__10_Normal_Bump.png"},{"sampler":0,"source":2,"name":"VP_Free_Iphone_mesh_opacity.jpg"}],"images":[{"uri":"VP_Free_Iphone_screen_diffuse.jpg"},{"uri":"Map__10_Normal_Bump.png"},{"uri":"VP_Free_Iphone_mesh_opacity.jpg"}],"samplers":[{"magFilter":9729,"minFilter":9987,"wrapS":10497,"wrapT":10497}]}