{"asset":{"version":"2.0","generator":"babylon.js glTF exporter for 3ds max 2019 v1.3.33"},"scene":0,"scenes":[{"nodes":[0,1],"extensions":{}}],"nodes":[{"mesh":0,"translation":[0.0,0.0,0.0],"rotation":[1.54543134E-08,-0.7071068,-1.545431E-08,0.7071067],"scale":[6.39758158,6.39758158,6.39758444],"name":"build6_3"},{"translation":[0.0,0.0,0.0],"rotation":[0.0,0.0,0.0,1.0],"scale":[1.0,1.0,1.0],"name":"Default light"}],"meshes":[{"primitives":[{"attributes":{"POSITION":1,"NORMAL":2,"COLOR_0":3,"TEXCOORD_0":4},"indices":0,"mode":4,"material":0}],"name":"build6_3"}],"accessors":[{"bufferView":0,"componentType":5123,"count":3210,"type":"SCALAR","name":"accessorIndices"},{"bufferView":1,"componentType":5126,"count":3210,"max":[0.7532606,0.976223648,0.954266],"min":[-0.7532679,0.00761384843,-0.715707],"type":"VEC3","name":"accessorPositions"},{"bufferView":1,"byteOffset":38520,"componentType":5126,"count":3210,"type":"VEC3","name":"accessorNormals"},{"bufferView":2,"componentType":5126,"count":3210,"type":"VEC4","name":"accessorColors"},{"bufferView":3,"componentType":5126,"count":3210,"type":"VEC2","name":"accessorUVs"}],"bufferViews":[{"buffer":0,"byteLength":6420,"name":"bufferViewScalar"},{"buffer":0,"byteOffset":6420,"byteLength":77040,"byteStride":12,"name":"bufferViewFloatVec3"},{"buffer":0,"byteOffset":83460,"byteLength":51360,"byteStride":16,"name":"bufferViewFloatVec4"},{"buffer":0,"byteOffset":134820,"byteLength":25680,"byteStride":8,"name":"bufferViewFloatVec2"}],"buffers":[{"uri":"scene.bin","byteLength":160500}],"materials":[{"pbrMetallicRoughness":{"baseColorFactor":[1.0,1.0,1.0,1.0],"baseColorTexture":{"index":0,"texCoord":0},"metallicFactor":0.1666668,"roughnessFactor":0.99},"emissiveFactor":[0.0,0.0,0.0],"alphaMode":"OPAQUE","name":"build6_3_red"}],"textures":[{"sampler":0,"source":0,"name":"build6_3_red.bmp"}],"images":[{"uri":"build6_3_red.bmp"}],"samplers":[{"magFilter":9729,"minFilter":9987,"wrapS":10497,"wrapT":10497}]}