{"asset":{"version":"2.0","generator":"babylon.js glTF exporter for 3ds max 2019 v1.3.33"},"scene":0,"scenes":[{"nodes":[0,1,2],"extensions":{}}],"nodes":[{"mesh":0,"translation":[0.0,0.0,0.0],"rotation":[-1.88251887E-15,0.423905641,-4.022143E-15,0.905706346],"scale":[18.8896828,18.8896828,18.88969],"name":"tower21"},{"mesh":1,"translation":[0.0,0.0,0.0],"rotation":[0.0,0.0,-4.44089125E-15,1.0],"scale":[18.6020641,18.6020641,18.60207],"name":"tower22"},{"translation":[0.0,0.0,0.0],"rotation":[0.0,0.0,0.0,1.0],"scale":[1.0,1.0,1.0],"name":"Default light"}],"meshes":[{"primitives":[{"attributes":{"POSITION":1,"NORMAL":2,"COLOR_0":3,"TEXCOORD_0":4},"indices":0,"mode":4,"material":0}],"name":"tower21"},{"primitives":[{"attributes":{"POSITION":6,"NORMAL":7,"TEXCOORD_0":8},"indices":5,"mode":4,"material":0}],"name":"tower22"}],"accessors":[{"bufferView":0,"componentType":5123,"count":1074,"type":"SCALAR","name":"accessorIndices"},{"bufferView":1,"componentType":5126,"count":1074,"max":[0.143306166,0.267451942,0.5310118],"min":[-0.142031759,0.0284218825,-0.143099427],"type":"VEC3","name":"accessorPositions"},{"bufferView":1,"byteOffset":12888,"componentType":5126,"count":1074,"type":"VEC3","name":"accessorNormals"},{"bufferView":2,"componentType":5126,"count":1074,"type":"VEC4","name":"accessorColors"},{"bufferView":3,"componentType":5126,"count":1074,"type":"VEC2","name":"accessorUVs"},{"bufferView":0,"byteOffset":2148,"componentType":5123,"count":672,"type":"SCALAR","name":"accessorIndices"},{"bufferView":1,"byteOffset":25776,"componentType":5126,"count":672,"max":[0.308363646,0.0315260254,0.307279617],"min":[-0.30630827,-1.30342954E-07,-0.307392359],"type":"VEC3","name":"accessorPositions"},{"bufferView":1,"byteOffset":33840,"componentType":5126,"count":672,"type":"VEC3","name":"accessorNormals"},{"bufferView":3,"byteOffset":8592,"componentType":5126,"count":672,"type":"VEC2","name":"accessorUVs"}],"bufferViews":[{"buffer":0,"byteLength":3492,"name":"bufferViewScalar"},{"buffer":0,"byteOffset":3492,"byteLength":41904,"byteStride":12,"name":"bufferViewFloatVec3"},{"buffer":0,"byteOffset":45396,"byteLength":17184,"byteStride":16,"name":"bufferViewFloatVec4"},{"buffer":0,"byteOffset":62580,"byteLength":13968,"byteStride":8,"name":"bufferViewFloatVec2"}],"buffers":[{"uri":"test.bin","byteLength":76548}],"materials":[{"pbrMetallicRoughness":{"baseColorFactor":[1.0,1.0,1.0,1.0],"baseColorTexture":{"index":0,"texCoord":0},"metallicFactor":0.1666668,"roughnessFactor":0.99},"emissiveFactor":[0.0,0.0,0.0],"alphaMode":"OPAQUE","name":"tower2_3_red"}],"textures":[{"sampler":0,"source":0,"name":"tower2_3_red.bmp"}],"images":[{"uri":"tower2_3_red.bmp"}],"samplers":[{"magFilter":9729,"minFilter":9987,"wrapS":10497,"wrapT":10497}]}