{"asset":{"version":"2.0","generator":"babylon.js glTF exporter for 3ds max 2019 v1.3.33"},"scene":0,"scenes":[{"nodes":[0,1],"extensions":{}}],"nodes":[{"mesh":0,"translation":[0.0,0.12191999,0.0],"rotation":[0.0,0.0,0.0,1.0],"scale":[701.3191,701.319641,701.319641],"name":"objtower5_3"},{"translation":[0.0,0.0,0.0],"rotation":[0.0,0.0,0.0,1.0],"scale":[1.0,1.0,1.0],"name":"Default light"}],"meshes":[{"primitives":[{"attributes":{"POSITION":1,"NORMAL":2,"TEXCOORD_0":3},"indices":0,"mode":4,"material":0}],"name":"objtower5_3"}],"accessors":[{"bufferView":0,"componentType":5123,"count":1890,"type":"SCALAR","name":"accessorIndices"},{"bufferView":1,"componentType":5126,"count":1890,"max":[0.002437,0.0158729982,0.00242499984],"min":[-0.002437,-1.9E-05,-0.00242499984],"type":"VEC3","name":"accessorPositions"},{"bufferView":1,"byteOffset":22680,"componentType":5126,"count":1890,"type":"VEC3","name":"accessorNormals"},{"bufferView":2,"componentType":5126,"count":1890,"type":"VEC2","name":"accessorUVs"}],"bufferViews":[{"buffer":0,"byteLength":3780,"name":"bufferViewScalar"},{"buffer":0,"byteOffset":3780,"byteLength":45360,"byteStride":12,"name":"bufferViewFloatVec3"},{"buffer":0,"byteOffset":49140,"byteLength":15120,"byteStride":8,"name":"bufferViewFloatVec2"}],"buffers":[{"uri":"glt.bin","byteLength":64260}],"materials":[{"pbrMetallicRoughness":{"baseColorFactor":[1.0,1.0,1.0,1.0],"baseColorTexture":{"index":0,"texCoord":0},"metallicFactor":0.1666668,"roughnessFactor":0.99},"emissiveFactor":[0.0,0.0,0.0],"alphaMode":"OPAQUE","name":"tower5_3_red"}],"textures":[{"sampler":0,"source":0,"name":"tower5_3_red.bmp"}],"images":[{"uri":"tower5_3_red.bmp"}],"samplers":[{"magFilter":9729,"minFilter":9987,"wrapS":10497,"wrapT":10497}]}