{"asset":{"version":"2.0","generator":"babylon.js glTF exporter for 3ds max 2019 v1.3.33"},"scene":0,"scenes":[{"nodes":[0,1],"extensions":{}}],"nodes":[{"mesh":0,"translation":[0.0,0.0,0.0],"rotation":[1.545431E-08,-0.7071068,-1.54543081E-08,0.7071067],"scale":[5.859275,5.859275,5.859275],"name":"build9_3"},{"translation":[0.0,0.0,0.0],"rotation":[0.0,0.0,0.0,1.0],"scale":[1.0,1.0,1.0],"name":"Default light"}],"meshes":[{"primitives":[{"attributes":{"POSITION":1,"NORMAL":2,"COLOR_0":3,"TEXCOORD_0":4},"indices":0,"mode":4,"material":0}],"name":"build9_3"}],"accessors":[{"bufferView":0,"componentType":5123,"count":3258,"type":"SCALAR","name":"accessorIndices"},{"bufferView":1,"componentType":5126,"count":3258,"max":[0.716925,0.691664,0.7673221],"min":[-0.716925,-0.005440135,-0.7673221],"type":"VEC3","name":"accessorPositions"},{"bufferView":1,"byteOffset":39096,"componentType":5126,"count":3258,"type":"VEC3","name":"accessorNormals"},{"bufferView":2,"componentType":5126,"count":3258,"type":"VEC4","name":"accessorColors"},{"bufferView":3,"componentType":5126,"count":3258,"type":"VEC2","name":"accessorUVs"}],"bufferViews":[{"buffer":0,"byteLength":6516,"name":"bufferViewScalar"},{"buffer":0,"byteOffset":6516,"byteLength":78192,"byteStride":12,"name":"bufferViewFloatVec3"},{"buffer":0,"byteOffset":84708,"byteLength":52128,"byteStride":16,"name":"bufferViewFloatVec4"},{"buffer":0,"byteOffset":136836,"byteLength":26064,"byteStride":8,"name":"bufferViewFloatVec2"}],"buffers":[{"uri":"scene.bin","byteLength":162900}],"materials":[{"pbrMetallicRoughness":{"baseColorFactor":[1.0,1.0,1.0,1.0],"baseColorTexture":{"index":0,"texCoord":0},"metallicFactor":0.1666668,"roughnessFactor":0.99},"emissiveFactor":[0.0,0.0,0.0],"alphaMode":"OPAQUE","name":"build9_3_red"}],"textures":[{"sampler":0,"source":0,"name":"build9_3_red.bmp"}],"images":[{"uri":"build9_3_red.bmp"}],"samplers":[{"magFilter":9729,"minFilter":9987,"wrapS":10497,"wrapT":10497}]}