{"asset":{"version":"2.0","generator":"babylon.js glTF exporter for 3ds max 2019 v1.3.33"},"scene":0,"scenes":[{"nodes":[0,1],"extensions":{}}],"nodes":[{"mesh":0,"translation":[0.0,0.0,0.0],"rotation":[1.545431E-08,-0.7071068,-1.54543081E-08,0.7071067],"scale":[6.39758158,6.39758158,6.39758158],"name":"build4_3"},{"translation":[0.0,0.0,0.0],"rotation":[0.0,0.0,0.0,1.0],"scale":[1.0,1.0,1.0],"name":"Default light"}],"meshes":[{"primitives":[{"attributes":{"POSITION":1,"NORMAL":2,"TEXCOORD_0":3},"indices":0,"mode":4,"material":0}],"name":"build4_3"}],"accessors":[{"bufferView":0,"componentType":5123,"count":2700,"type":"SCALAR","name":"accessorIndices"},{"bufferView":1,"componentType":5126,"count":2700,"max":[0.628418,2.05477571,0.6577981],"min":[-0.6292566,0.00230743666,-0.790186167],"type":"VEC3","name":"accessorPositions"},{"bufferView":1,"byteOffset":32400,"componentType":5126,"count":2700,"type":"VEC3","name":"accessorNormals"},{"bufferView":2,"componentType":5126,"count":2700,"type":"VEC2","name":"accessorUVs"}],"bufferViews":[{"buffer":0,"byteLength":5400,"name":"bufferViewScalar"},{"buffer":0,"byteOffset":5400,"byteLength":64800,"byteStride":12,"name":"bufferViewFloatVec3"},{"buffer":0,"byteOffset":70200,"byteLength":21600,"byteStride":8,"name":"bufferViewFloatVec2"}],"buffers":[{"uri":"scene.bin","byteLength":91800}],"materials":[{"pbrMetallicRoughness":{"baseColorFactor":[1.0,1.0,1.0,1.0],"baseColorTexture":{"index":0,"texCoord":0},"metallicFactor":0.1666668,"roughnessFactor":0.99},"emissiveFactor":[0.0,0.0,0.0],"alphaMode":"OPAQUE","name":"build4_3_red"}],"textures":[{"sampler":0,"source":0,"name":"build4_3_red.bmp"}],"images":[{"uri":"build4_3_red.bmp"}],"samplers":[{"magFilter":9729,"minFilter":9987,"wrapS":10497,"wrapT":10497}]}