{"asset":{"version":"2.0","generator":"babylon.js glTF exporter for 3ds max 2019 v1.3.33"},"scene":0,"scenes":[{"nodes":[0,1],"extensions":{}}],"nodes":[{"mesh":0,"translation":[0.0,0.0,0.0],"rotation":[0.5,-0.50000006,0.5,0.5],"scale":[2.54,2.54,2.54],"name":"build19_3"},{"translation":[0.0,0.0,0.0],"rotation":[0.0,0.0,0.0,1.0],"scale":[1.0,1.0,1.0],"name":"Default light"}],"meshes":[{"primitives":[{"attributes":{"POSITION":1,"NORMAL":2,"COLOR_0":3,"TEXCOORD_0":4},"indices":0,"mode":4,"material":0}],"name":"build19_3"}],"accessors":[{"bufferView":0,"componentType":5123,"count":4491,"type":"SCALAR","name":"accessorIndices"},{"bufferView":1,"componentType":5126,"count":4491,"max":[2.203496,1.9622792,0.001375818],"min":[-2.203496,-2.3516233,-2.61316133],"type":"VEC3","name":"accessorPositions"},{"bufferView":1,"byteOffset":53892,"componentType":5126,"count":4491,"type":"VEC3","name":"accessorNormals"},{"bufferView":2,"componentType":5126,"count":4491,"type":"VEC4","name":"accessorColors"},{"bufferView":3,"componentType":5126,"count":4491,"type":"VEC2","name":"accessorUVs"}],"bufferViews":[{"buffer":0,"byteLength":8984,"name":"bufferViewScalar"},{"buffer":0,"byteOffset":8984,"byteLength":107784,"byteStride":12,"name":"bufferViewFloatVec3"},{"buffer":0,"byteOffset":116768,"byteLength":71856,"byteStride":16,"name":"bufferViewFloatVec4"},{"buffer":0,"byteOffset":188624,"byteLength":35928,"byteStride":8,"name":"bufferViewFloatVec2"}],"buffers":[{"uri":"scene.bin","byteLength":224552}],"materials":[{"pbrMetallicRoughness":{"baseColorFactor":[1.0,1.0,1.0,1.0],"baseColorTexture":{"index":0,"texCoord":0},"metallicFactor":0.1666668,"roughnessFactor":0.5678072},"emissiveFactor":[0.0,0.0,0.0],"alphaMode":"OPAQUE","name":"build19_3_red"}],"textures":[{"sampler":0,"source":0,"name":"build19_3_red.bmp"}],"images":[{"uri":"build19_3_red.bmp"}],"samplers":[{"magFilter":9729,"minFilter":9987,"wrapS":10497,"wrapT":10497}]}