{"asset":{"version":"2.0","generator":"babylon.js glTF exporter for 3ds max 2019 v1.3.33"},"scene":0,"scenes":[{"nodes":[0,1,45],"extensions":{}}],"nodes":[{"skin":0,"mesh":0,"translation":[0.0,0.0,0.0],"rotation":[0.0,0.0,0.0,1.0],"scale":[1.0,1.0,1.0],"name":"smdimport"},{"children":[2],"translation":[0.0,39.264595,1.141865],"rotation":[0.0,-0.7071063,0.0,0.707107246],"scale":[0.99999994,1.0,0.99999994],"name":"Bip01"},{"children":[3,35,39,43,44],"translation":[-0.149474978,0.07819748,1.13686838E-13],"rotation":[-0.499999762,-0.499999762,0.500000238,0.500000358],"scale":[1.0,1.0,1.0],"name":"Bip01 Pelvis"},{"children":[4],"translation":[3.45265579,9.999999E-07,-0.545245945],"rotation":[-1.90717253E-06,0.000369500049,4.7754196E-07,0.9999999],"scale":[0.999999762,1.0,0.999999762],"name":"Bip01 Spine"},{"children":[5],"translation":[4.11860657,-3.637979E-12,0.0032800436],"rotation":[3.74700228E-15,1.74999277E-05,-8.526512E-14,1.0],"scale":[1.00000012,1.0,1.00000012],"name":"Bip01 Spine1"},{"children":[6],"translation":[4.1183815,1.8189894E-12,0.00327193737],"rotation":[1.25944685E-14,-0.03407843,-2.84382266E-14,0.9994192],"scale":[1.0,1.0,1.0],"name":"Bip01 Spine2"},{"children":[7],"translation":[4.11829,-1.8189894E-12,0.00305366516],"rotation":[4.624481E-14,-0.0507232361,2.84583419E-14,0.9987128],"scale":[1.0,1.0,1.0],"name":"Bip01 Spine3"},{"children":[8,9,22],"translation":[3.75286484,-1.00000034E-06,0.33813],"rotation":[3.59783851E-14,0.08098476,-2.85153777E-14,0.9967153],"scale":[0.9999999,1.0,0.9999999],"name":"Bip01 Neck"},{"translation":[2.15164185,-1.8189894E-12,-5.96046448E-08],"rotation":[-2.08727451E-14,0.007271436,2.842246E-14,0.999973536],"scale":[1.0,1.0,1.0],"name":"Bip01 Head"},{"children":[10],"translation":[-2.00337219,1.914857,0.615161955],"rotation":[0.704761267,0.7047613,0.0575454943,0.0575457253],"scale":[0.99999994,0.9999999,0.9999998],"name":"Bip01 L Clavicle"},{"children":[11,19],"translation":[3.265495,0.0,0.0],"rotation":[0.0828181654,0.0540172867,-0.485179871,0.868805945],"scale":[0.9999999,1.0,1.00000012],"name":"Bip01 L UpperArm"},{"children":[12],"translation":[9.162682,-3.81469727E-06,0.0],"rotation":[-1.863401E-09,-0.0284740571,2.98144123E-08,0.9995945],"scale":[1.0,0.99999994,0.99999994],"name":"Bip01 L Forearm"},{"children":[13,15,17],"translation":[9.616842,3.81469727E-06,0.0],"rotation":[-0.707454264,-0.007646173,0.007755739,0.706675231],"scale":[1.0,1.00000012,1.00000012],"name":"Bip01 L Hand"},{"children":[14],"translation":[1.8700943,-1.59023976,-0.518322],"rotation":[0.6992069,0.08824865,-0.334316462,0.625743151],"scale":[0.9999998,0.99999994,0.9999999],"name":"Bip01 L Finger0"},{"translation":[2.12006378,0.0,-1.90734863E-06],"rotation":[6.874287E-09,0.317213237,-1.22755117E-09,0.9483543],"scale":[0.99999994,0.99999994,0.9999999],"name":"Bip01 L Finger01"},{"children":[16],"translation":[3.41237259,-0.6438869,0.4828949],"rotation":[0.07764965,0.173484743,-0.0415795259,0.9808898],"scale":[1.00000012,1.0,0.99999994],"name":"Bip01 L Finger1"},{"translation":[1.89740944,0.0,3.81469727E-06],"rotation":[2.44637266E-09,0.03674223,4.44389271E-16,0.9993248],"scale":[0.99999994,1.00000012,1.0],"name":"Bip01 L Finger11"},{"children":[18],"translation":[3.44449234,0.8049,0.304309845],"rotation":[-0.08486689,0.1603783,0.140779182,0.973271668],"scale":[1.0,0.9999999,1.0],"name":"Bip01 L Finger2"},{"translation":[1.52358627,4.76837158E-07,-1.90734863E-06],"rotation":[9.313226E-10,0.0,0.0,1.0],"scale":[1.0,1.0,1.0],"name":"Bip01 L Finger21"},{"children":[20],"translation":[9.162682,-3.81469727E-06,0.0],"rotation":[-0.000110343382,-0.02847406,-3.18268849E-06,0.9995945],"scale":[1.0,1.0,1.0],"name":"Bip01 L ForeTwist"},{"children":[21],"translation":[2.40420914,3.81469727E-06,-5.96046448E-08],"rotation":[-0.000110387329,-4.65661232E-10,1.49011594E-08,1.0],"scale":[1.00000012,1.0,1.00000012],"name":"Bip01 L ForeTwist1"},{"translation":[2.404211,-3.81469727E-06,0.0],"rotation":[-0.0001103878,4.656613E-10,-8.881784E-16,1.0],"scale":[0.99999994,1.0,1.0],"name":"Bip01 L ForeTwist2"},{"children":[23],"translation":[-2.00336838,-1.914861,0.6151509],"rotation":[0.7047613,-0.704761267,0.057545498,-0.05754572],"scale":[0.99999994,0.9999999,0.9999998],"name":"Bip01 R Clavicle"},{"children":[24,32],"translation":[3.26549554,3.81469727E-06,0.0],"rotation":[-0.08281831,0.0540172867,0.485179752,0.868806],"scale":[0.9999998,0.9999999,0.9999999],"name":"Bip01 R UpperArm"},{"children":[25],"translation":[9.162678,0.0,-1.1920929E-07],"rotation":[2.096326E-09,-0.0284740571,1.77707745E-15,0.9995945],"scale":[0.999999762,0.99999994,0.99999994],"name":"Bip01 R Forearm"},{"children":[26,28,30],"translation":[9.61684,0.0,5.96046448E-08],"rotation":[0.707454264,-0.00764616951,-0.00775574753,0.706675231],"scale":[1.00000012,0.9999998,1.00000024],"name":"Bip01 R Hand"},{"children":[27],"translation":[1.87009048,1.59024,-0.5183258],"rotation":[-0.699207067,0.08824879,0.3343166,0.625742853],"scale":[0.9999998,1.00000024,1.0],"name":"Bip01 R Finger0"},{"translation":[2.12006378,0.0,-9.536743E-07],"rotation":[9.206631E-10,0.3172132,-3.437143E-09,0.9483543],"scale":[1.0,0.99999994,1.0],"name":"Bip01 R Finger01"},{"children":[29],"translation":[3.41237068,0.6438868,0.482891083],"rotation":[-0.07764977,0.173484713,0.0415795855,0.9808898],"scale":[1.0,0.9999998,0.99999994],"name":"Bip01 R Finger1"},{"translation":[1.89741325,0.0,-1.90734863E-06],"rotation":[-5.358723E-09,0.03674224,1.11097318E-16,0.9993248],"scale":[1.0,1.00000012,1.0],"name":"Bip01 R Finger11"},{"children":[31],"translation":[3.44449425,-0.8048999,0.30430603],"rotation":[0.0848668739,0.160378367,-0.140779078,0.973271668],"scale":[0.9999999,0.999999762,0.9999999],"name":"Bip01 R Finger2"},{"translation":[1.52359009,-4.76837158E-07,-1.90734863E-06],"rotation":[-6.519258E-09,3.72528985E-09,-7.45057971E-09,1.0],"scale":[1.00000012,1.00000012,1.0],"name":"Bip01 R Finger21"},{"children":[33],"translation":[9.162678,0.0,-1.1920929E-07],"rotation":[0.000110456815,-0.0284740571,3.14542149E-06,0.9995945],"scale":[0.9999998,0.9999999,1.0],"name":"Bip01 R ForeTwist"},{"children":[34],"translation":[2.40420914,-3.81469727E-06,0.0],"rotation":[0.000110501423,1.39698386E-09,1.49011612E-08,1.0],"scale":[0.99999994,1.0,1.0],"name":"Bip01 R ForeTwist1"},{"translation":[2.40420723,0.0,1.1920929E-07],"rotation":[0.000110499328,-9.313225E-10,7.450581E-09,1.0],"scale":[1.00000012,1.0,1.0],"name":"Bip01 R ForeTwist2"},{"children":[36],"translation":[-3.81469727E-06,2.94322515,-6.020069E-06],"rotation":[0.0342070758,-0.000907031237,0.9980391,0.0524110869],"scale":[1.00000012,0.99999994,1.0],"name":"Bip01 L Thigh"},{"children":[37],"translation":[17.08567,4.76837158E-07,-1.1920929E-07],"rotation":[-1.16415461E-10,-0.0009295924,-2.220447E-16,0.9999995],"scale":[1.00000012,1.0,1.00000036],"name":"Bip01 L Calf"},{"children":[38],"translation":[18.0731125,9.536743E-07,-1.1920929E-07],"rotation":[-0.05041987,0.0326205753,0.04990265,0.9969471],"scale":[0.9999999,1.00000024,0.9999999],"name":"Bip01 L Foot"},{"translation":[3.49604416,-0.144696236,-3.80529976],"rotation":[-0.0106068021,0.7123104,-0.0151180532,0.701621652],"scale":[0.9999999,1.0,1.00000012],"name":"Bip01 L Toe0"},{"children":[40],"translation":[3.81469727E-06,-2.94322467,1.90734863E-06],"rotation":[0.034207,0.000908532937,0.998039067,-0.052412454],"scale":[1.0,1.0,1.0],"name":"Bip01 R Thigh"},{"children":[41],"translation":[17.0856667,0.0,-1.1920929E-07],"rotation":[-2.32830755E-10,-0.0009295927,-1.862646E-09,0.9999995],"scale":[1.0,1.0,0.9999999],"name":"Bip01 R Calf"},{"children":[42],"translation":[18.0731163,0.0,-1.1920929E-07],"rotation":[0.05041979,0.0326205753,-0.0499025621,0.9969471],"scale":[1.0,1.0,1.00000012],"name":"Bip01 R Foot"},{"translation":[3.49604416,0.144695759,-3.80530071],"rotation":[0.0106071783,0.712310731,0.0151184388,0.701621234],"scale":[1.00000024,0.99999994,1.00000024],"name":"Bip01 R Toe0"},{"translation":[1.28631592,0.088135,4.36914253],"rotation":[0.0543800443,0.0543800443,0.7050125,0.7050128],"scale":[1.0,0.9999999,0.9999999],"name":"Skult_Back"},{"translation":[-0.342926025,0.08810801,-4.24071741],"rotation":[0.00447737,0.00447737,0.7070926,0.707092643],"scale":[1.0,1.0,1.0],"name":"Skult_Front"},{"translation":[0.0,0.0,0.0],"rotation":[0.0,0.0,0.0,1.0],"scale":[1.0,1.0,1.0],"name":"Default light"}],"meshes":[{"primitives":[{"attributes":{"POSITION":1,"NORMAL":2,"TEXCOORD_0":3,"JOINTS_0":4,"WEIGHTS_0":5},"indices":0,"mode":4,"material":0}],"name":"smdimport"}],"accessors":[{"bufferView":0,"componentType":5123,"count":5112,"type":"SCALAR","name":"accessorIndices"},{"bufferView":1,"componentType":5126,"count":5112,"max":[18.291399,68.8798,6.0439],"min":[-18.2905979,0.984797835,-4.50579834],"type":"VEC3","name":"accessorPositions"},{"bufferView":1,"byteOffset":61344,"componentType":5126,"count":5112,"type":"VEC3","name":"accessorNormals"},{"bufferView":2,"componentType":5126,"count":5112,"type":"VEC2","name":"accessorUVs"},{"bufferView":3,"componentType":5123,"count":5112,"type":"VEC4","name":"accessorJoints"},{"bufferView":4,"componentType":5126,"count":5112,"type":"VEC4","name":"accessorWeights"},{"bufferView":5,"componentType":5126,"count":44,"type":"MAT4","name":"accessorInverseBindMatrices"}],"bufferViews":[{"buffer":0,"byteLength":10224,"name":"bufferViewScalar"},{"buffer":0,"byteOffset":10224,"byteLength":122688,"byteStride":12,"name":"bufferViewFloatVec3"},{"buffer":0,"byteOffset":132912,"byteLength":40896,"byteStride":8,"name":"bufferViewFloatVec2"},{"buffer":0,"byteOffset":173808,"byteLength":40896,"byteStride":8,"name":"bufferViewUnsignedShortVec4"},{"buffer":0,"byteOffset":214704,"byteLength":81792,"byteStride":16,"name":"bufferViewFloatVec4"},{"buffer":0,"byteOffset":296496,"byteLength":2816,"name":"bufferViewFloatMat4"}],"buffers":[{"uri":"women.bin","byteLength":299312}],"materials":[{"pbrMetallicRoughness":{"baseColorFactor":[1.0,1.0,1.0,1.0],"baseColorTexture":{"index":0,"texCoord":0},"metallicFactor":0.0,"roughnessFactor":0.9},"emissiveFactor":[0.0,0.0,0.0],"alphaMode":"BLEND","name":"01 - Default"}],"textures":[{"sampler":0,"source":0,"name":"Speed_zombi_origin_ver2.png"}],"images":[{"uri":"Speed_zombi_origin_ver2.png"}],"samplers":[{"magFilter":9729,"minFilter":9987,"wrapS":10497,"wrapT":10497}],"skins":[{"inverseBindMatrices":6,"skeleton":1,"joints":[1,2,3,4,5,6,7,8,9,10,11,12,13,14,15,16,17,18,19,20,21,22,23,24,25,26,27,28,29,30,31,32,33,34,35,36,37,38,39,40,41,42,43,44],"name":"skeleton #0"}]}