{"asset":{"version":"2.0","generator":"babylon.js glTF exporter for 3ds max 2019 v1.3.33"},"scene":0,"scenes":[{"nodes":[0,1,38],"extensions":{}}],"nodes":[{"skin":0,"mesh":0,"translation":[0.0,0.0,0.0],"rotation":[0.0,0.0,0.0,1.0],"scale":[1.0,1.0,1.0],"name":"smdimport"},{"children":[2],"translation":[0.0,38.24129,-2.236178],"rotation":[0.0,-0.7071063,0.0,0.707107246],"scale":[0.99999994,1.0,0.99999994],"name":"Bip01"},{"children":[3,30,34],"translation":[0.0,0.0,0.0],"rotation":[-0.499999762,-0.499999762,0.500000238,0.500000358],"scale":[1.0,1.0,1.0],"name":"Bip01 Pelvis"},{"children":[4],"translation":[4.48498535,6E-06,0.005049944],"rotation":[-1.90716946E-06,0.000375500065,4.77553328E-07,0.9999999],"scale":[0.999999762,1.0,0.999999762],"name":"Bip01 Spine"},{"children":[5],"translation":[6.345154,0.0,0.006407976],"rotation":[5.209721E-14,2.79999767E-05,-2.84217077E-14,1.0],"scale":[1.00000012,1.0,1.00000012],"name":"Bip01 Spine1"},{"children":[6],"translation":[8.046532,-1.8189894E-12,0.006645918],"rotation":[6.333822E-14,3.499997E-06,-4.263256E-14,1.0],"scale":[1.00000012,1.0,1.00000012],"name":"Bip01 Spine2"},{"children":[7],"translation":[7.439396,-8.000006E-06,0.0],"rotation":[4.223543E-14,0.707105935,5.328494E-14,0.7071076],"scale":[1.0,1.0,1.0],"name":"Bip01 Spine3"},{"children":[8,14,26],"translation":[1.95506525,9.000007E-06,7.62939453E-06],"rotation":[8.06056949E-14,-0.608760655,-1.170252E-14,0.7933539],"scale":[1.0,1.0,1.0],"name":"Bip01 Neck"},{"children":[9,10,11,12,13],"translation":[2.56362534,1.8189894E-12,0.0],"rotation":[1.03425942E-13,-0.08756233,-1.42656459E-14,0.996158957],"scale":[1.00000012,1.0,1.00000012],"name":"Bip01 Head"},{"translation":[4.657631,-1.186476,-2.93879557],"rotation":[-0.08642918,0.6778421,-0.0924892649,0.7242278],"scale":[1.0,1.0,1.00000012],"name":"Bip01 EYE R"},{"translation":[4.65813446,1.193319,-2.93866158],"rotation":[0.08382785,0.678168952,0.08970959,0.724577069],"scale":[0.9999999,1.00000012,0.9999999],"name":"Bip01 EYE L"},{"translation":[5.509247,-1.240875,-3.09184742],"rotation":[-0.08642918,0.6778421,-0.0924892649,0.7242278],"scale":[1.0,1.0,1.00000012],"name":"Bone_MiganR"},{"translation":[5.509758,1.246112,-3.09212756],"rotation":[0.08382785,0.678168952,0.08970959,0.724577069],"scale":[0.9999999,1.00000012,0.9999999],"name":"Bone_MiganL"},{"translation":[5.35614,1.00000034E-06,-3.65118837],"rotation":[-2.19163667E-06,0.70710665,2.191636E-06,0.7071069],"scale":[0.99999994,1.0,0.99999994],"name":"Bone_MiganM"},{"children":[15,25],"translation":[-2.7527504,2.98968124,0.185726166],"rotation":[0.5919029,0.7951794,0.08980288,0.09631216],"scale":[1.0,1.00000012,1.00000024],"name":"Bip01 L Clavicle"},{"children":[16,22],"translation":[5.76027775,-2.28881836E-05,1.1920929E-07],"rotation":[0.008617343,-0.0142039,-0.3779208,0.925688863],"scale":[1.0,0.9999998,1.0],"name":"Bip01 L UpperArm"},{"children":[17],"translation":[11.7852173,-7.62939453E-06,-9.536743E-07],"rotation":[7.568482E-10,-0.0198086668,0.0,0.999803841],"scale":[1.0,1.0,0.99999994],"name":"Bip01 L Forearm"},{"children":[18,20],"translation":[11.581955,-7.62939453E-06,-8.34465E-07],"rotation":[-0.707329154,0.0154639492,-0.0154171912,0.706547],"scale":[0.999999642,1.00000012,0.99999994],"name":"Bip01 L Hand"},{"children":[19],"translation":[2.07124519,-0.374139071,-0.100177765],"rotation":[0.778294861,-0.125129372,-0.333094329,0.5173472],"scale":[0.9999999,1.00000024,1.00000012],"name":"Bip01 L Finger0"},{"translation":[3.35613441,1.90734863E-06,-3.81469727E-06],"rotation":[2.073336E-08,0.153046682,-3.769702E-09,0.9882189],"scale":[1.0,0.99999994,0.9999999],"name":"Bip01 L Finger01"},{"children":[21],"translation":[5.748966,0.4027388,0.312088],"rotation":[-0.0140466811,0.0437439941,-0.0320712142,0.998429],"scale":[1.0,0.99999994,1.00000012],"name":"Bip01 L Finger1"},{"translation":[1.6809063,0.0,7.62939453E-06],"rotation":[1.00479536E-09,0.173648253,1.8913795E-09,0.9848077],"scale":[1.0,1.0,1.0],"name":"Bip01 L Finger11"},{"children":[23],"translation":[11.7852173,-7.62939453E-06,-9.536743E-07],"rotation":[-0.000110365014,-0.0198086649,-2.21325672E-06,0.999803841],"scale":[1.00000012,1.0,0.999999762],"name":"Bip01 L ForeTwist"},{"children":[24],"translation":[2.89548874,-3.81469727E-06,0.0],"rotation":[-0.000110389206,4.65661376E-09,-7.450581E-09,1.0],"scale":[0.99999994,1.0,0.9999999],"name":"Bip01 L ForeTwist1"},{"translation":[2.89549255,0.0,-2.38418579E-07],"rotation":[-0.0001103878,9.313226E-10,7.450581E-09,1.0],"scale":[1.0,1.0,0.99999994],"name":"Bip01 L ForeTwist2"},{"translation":[5.76027775,-2.28881836E-05,1.1920929E-07],"rotation":[0.05061245,-0.0313377753,-0.376887,0.924344361],"scale":[0.99999994,1.0,1.0],"name":"Bip01 LUpArmTwist"},{"children":[27,29],"translation":[-2.7527504,-2.98967075,0.185709],"rotation":[-0.5919027,0.795179665,-0.08980078,0.09631383],"scale":[0.9999999,1.0,1.00000024],"name":"Bip01 R Clavicle"},{"children":[28],"translation":[5.76027966,3.81469727E-06,1.1920929E-07],"rotation":[-0.008617387,-0.0142039163,0.3779207,0.9256889],"scale":[1.00000012,1.0,0.9999998],"name":"Bip01 R UpperArm"},{"translation":[11.7852058,-3.81469727E-06,9.536743E-07],"rotation":[-4.07533673E-10,-0.0198086649,7.45204254E-09,0.999803841],"scale":[1.0,1.0,0.99999994],"name":"Bip01 R Forearm"},{"translation":[5.7602787,3.81469727E-06,1.1920929E-07],"rotation":[-0.05061255,-0.03133781,0.376887,0.924344361],"scale":[1.0,1.00000012,0.99999994],"name":"Bip01 RUpArmTwist"},{"children":[31],"translation":[-3.81469727E-06,4.0442,-7.15255737E-06],"rotation":[0.04801505,-0.00406965148,0.9961229,0.07360194],"scale":[1.0,1.00000024,1.00000012],"name":"Bip01 L Thigh"},{"children":[32],"translation":[17.1820736,0.0,-9.536743E-07],"rotation":[1.16423049E-09,-0.0115201334,7.451074E-09,0.9999336],"scale":[1.0,1.00000012,1.0],"name":"Bip01 L Calf"},{"children":[33],"translation":[16.7828846,-9.536743E-07,0.0],"rotation":[0.004918248,0.059487205,0.0735512152,0.9955036],"scale":[0.999999762,0.99999994,0.999999762],"name":"Bip01 L Foot"},{"translation":[5.168506,-1.90734863E-06,-5.004137],"rotation":[1.35876612E-14,0.70710665,-8.893407E-15,0.7071069],"scale":[0.99999994,1.0,0.99999994],"name":"Bip01 L Toe0"},{"children":[35],"translation":[3.81469727E-06,-4.0442,4.053116E-06],"rotation":[0.04801539,0.004070919,0.996122658,-0.0736045241],"scale":[1.0,0.9999999,0.99999994],"name":"Bip01 R Thigh"},{"children":[36],"translation":[17.1820717,-1.90734863E-06,-1.90734863E-06],"rotation":[4.65692263E-10,-0.01152013,-3.725535E-09,0.9999336],"scale":[0.9999998,1.00000024,0.99999994],"name":"Bip01 R Calf"},{"children":[37],"translation":[16.78289,1.90734863E-06,-2.38418579E-06],"rotation":[-0.004918179,0.05948719,-0.07355122,0.9955036],"scale":[0.9999999,1.0,0.99999994],"name":"Bip01 R Foot"},{"translation":[5.16850662,-3.81469727E-06,-5.00413465],"rotation":[1.24747963E-14,0.70710665,1.523174E-15,0.7071069],"scale":[0.99999994,1.0,0.99999994],"name":"Bip01 R Toe0"},{"translation":[0.0,0.0,0.0],"rotation":[0.0,0.0,0.0,1.0],"scale":[1.0,1.0,1.0],"name":"Default light"}],"meshes":[{"primitives":[{"attributes":{"POSITION":1,"NORMAL":2,"TEXCOORD_0":3,"JOINTS_0":4,"WEIGHTS_0":5},"indices":0,"mode":4,"material":0}],"name":"smdimport"}],"accessors":[{"bufferView":0,"componentType":5123,"count":4662,"type":"SCALAR","name":"accessorIndices"},{"bufferView":1,"componentType":5126,"count":4662,"max":[24.1475,76.2661,5.80850029],"min":[-31.6847019,-0.07640586,-9.6173],"type":"VEC3","name":"accessorPositions"},{"bufferView":1,"byteOffset":55944,"componentType":5126,"count":4662,"type":"VEC3","name":"accessorNormals"},{"bufferView":2,"componentType":5126,"count":4662,"type":"VEC2","name":"accessorUVs"},{"bufferView":3,"componentType":5123,"count":4662,"type":"VEC4","name":"accessorJoints"},{"bufferView":4,"componentType":5126,"count":4662,"type":"VEC4","name":"accessorWeights"},{"bufferView":5,"componentType":5126,"count":37,"type":"MAT4","name":"accessorInverseBindMatrices"}],"bufferViews":[{"buffer":0,"byteLength":9324,"name":"bufferViewScalar"},{"buffer":0,"byteOffset":9324,"byteLength":111888,"byteStride":12,"name":"bufferViewFloatVec3"},{"buffer":0,"byteOffset":121212,"byteLength":37296,"byteStride":8,"name":"bufferViewFloatVec2"},{"buffer":0,"byteOffset":158508,"byteLength":37296,"byteStride":8,"name":"bufferViewUnsignedShortVec4"},{"buffer":0,"byteOffset":195804,"byteLength":74592,"byteStride":16,"name":"bufferViewFloatVec4"},{"buffer":0,"byteOffset":270396,"byteLength":2368,"name":"bufferViewFloatMat4"}],"buffers":[{"uri":"parent.bin","byteLength":272764}],"materials":[{"pbrMetallicRoughness":{"baseColorFactor":[1.0,1.0,1.0,1.0],"baseColorTexture":{"index":0,"texCoord":0},"metallicFactor":0.0,"roughnessFactor":0.9},"emissiveFactor":[0.0,0.0,0.0],"alphaMode":"BLEND","name":"Material #2"}],"textures":[{"sampler":0,"source":0,"name":"MODCCSO_Zombi_Origin.bmp"}],"images":[{"uri":"MODCCSO_Zombi_Origin.bmp"}],"samplers":[{"magFilter":9729,"minFilter":9987,"wrapS":10497,"wrapT":10497}],"skins":[{"inverseBindMatrices":6,"skeleton":1,"joints":[1,2,3,4,5,6,7,8,9,10,11,12,13,14,15,16,17,18,19,20,21,22,23,24,25,26,27,28,29,30,31,32,33,34,35,36,37],"name":"skeleton #0"}]}