{"asset":{"version":"2.0","generator":"babylon.js glTF exporter for 3ds max 2019 v1.3.33"},"scene":0,"scenes":[{"nodes":[0,1],"extensions":{}}],"nodes":[{"mesh":0,"translation":[0.0,0.0,0.0],"rotation":[4.60647129E-08,-0.7098232,4.64206948E-08,0.70438],"scale":[335.2668,335.266785,335.2671],"name":"RED"},{"translation":[0.0,0.0,0.0],"rotation":[0.0,0.0,0.0,1.0],"scale":[1.0,1.0,1.0],"name":"Default light"}],"meshes":[{"primitives":[{"attributes":{"POSITION":1,"NORMAL":2,"COLOR_0":3,"TEXCOORD_0":4},"indices":0,"mode":4,"material":0}],"name":"RED"}],"accessors":[{"bufferView":0,"componentType":5123,"count":900,"type":"SCALAR","name":"accessorIndices"},{"bufferView":1,"componentType":5126,"count":900,"max":[0.00654738257,0.03097948,0.00730135059],"min":[-0.00618229248,-1.8817178E-05,-0.00710287131],"type":"VEC3","name":"accessorPositions"},{"bufferView":1,"byteOffset":10800,"componentType":5126,"count":900,"type":"VEC3","name":"accessorNormals"},{"bufferView":2,"componentType":5126,"count":900,"type":"VEC4","name":"accessorColors"},{"bufferView":3,"componentType":5126,"count":900,"type":"VEC2","name":"accessorUVs"}],"bufferViews":[{"buffer":0,"byteLength":1800,"name":"bufferViewScalar"},{"buffer":0,"byteOffset":1800,"byteLength":21600,"byteStride":12,"name":"bufferViewFloatVec3"},{"buffer":0,"byteOffset":23400,"byteLength":14400,"byteStride":16,"name":"bufferViewFloatVec4"},{"buffer":0,"byteOffset":37800,"byteLength":7200,"byteStride":8,"name":"bufferViewFloatVec2"}],"buffers":[{"uri":"scene.bin","byteLength":45000}],"materials":[{"pbrMetallicRoughness":{"baseColorFactor":[1.0,1.0,1.0,1.0],"baseColorTexture":{"index":0,"texCoord":0},"metallicFactor":0.1666668,"roughnessFactor":0.99},"emissiveFactor":[0.0,0.0,0.0],"alphaMode":"OPAQUE","name":"tower1_3_red"}],"textures":[{"sampler":0,"source":0,"name":"tower1_3_red.bmp"}],"images":[{"uri":"tower1_3_red.bmp"}],"samplers":[{"magFilter":9729,"minFilter":9987,"wrapS":10497,"wrapT":10497}]}