{"asset":{"version":"2.0","generator":"babylon.js glTF exporter for 3ds max 2019 v1.3.33"},"scene":0,"scenes":[{"nodes":[0,1,2],"extensions":{}}],"nodes":[{"mesh":0,"translation":[-0.0265628323,-0.119294167,0.479183316],"rotation":[-4.371139E-08,4.371139E-08,-4.371139E-08,1.0],"scale":[6.712941,6.712941,6.712941],"name":"Object01"},{"mesh":1,"translation":[-0.000117600146,-0.2719804,1.2885654],"rotation":[-4.371139E-08,4.371139E-08,-4.371139E-08,1.0],"scale":[6.712941,6.712941,6.712941],"name":"Box01"},{"translation":[0.0,0.0,0.0],"rotation":[0.0,0.0,0.0,1.0],"scale":[1.0,1.0,1.0],"name":"Default light"}],"meshes":[{"primitives":[{"attributes":{"POSITION":1,"NORMAL":2,"TEXCOORD_0":3},"indices":0,"mode":4,"material":0}],"name":"Object01"},{"primitives":[{"attributes":{"POSITION":5,"NORMAL":6,"TEXCOORD_0":7},"indices":4,"mode":4,"material":0}],"name":"Box01"}],"accessors":[{"bufferView":0,"componentType":5123,"count":3432,"type":"SCALAR","name":"accessorIndices"},{"bufferView":1,"componentType":5126,"count":3432,"max":[0.435069352,0.610573947,0.6823416],"min":[-0.410663068,0.188375458,-0.260697722],"type":"VEC3","name":"accessorPositions"},{"bufferView":1,"byteOffset":41184,"componentType":5126,"count":3432,"type":"VEC3","name":"accessorNormals"},{"bufferView":2,"componentType":5126,"count":3432,"type":"VEC2","name":"accessorUVs"},{"bufferView":0,"byteOffset":6864,"componentType":5123,"count":696,"type":"SCALAR","name":"accessorIndices"},{"bufferView":1,"byteOffset":82368,"componentType":5126,"count":696,"max":[0.38232848,0.2169769,0.3821616],"min":[-0.382328451,0.0173137616,-0.377782464],"type":"VEC3","name":"accessorPositions"},{"bufferView":1,"byteOffset":90720,"componentType":5126,"count":696,"type":"VEC3","name":"accessorNormals"},{"bufferView":2,"byteOffset":27456,"componentType":5126,"count":696,"type":"VEC2","name":"accessorUVs"}],"bufferViews":[{"buffer":0,"byteLength":8256,"name":"bufferViewScalar"},{"buffer":0,"byteOffset":8256,"byteLength":99072,"byteStride":12,"name":"bufferViewFloatVec3"},{"buffer":0,"byteOffset":107328,"byteLength":33024,"byteStride":8,"name":"bufferViewFloatVec2"}],"buffers":[{"uri":"sgjqp.bin","byteLength":140352}],"materials":[{"pbrMetallicRoughness":{"baseColorFactor":[1.0,1.0,1.0,1.0],"baseColorTexture":{"index":0,"texCoord":0},"metallicFactor":0.1666668,"roughnessFactor":0.99},"emissiveFactor":[0.0,0.0,0.0],"alphaMode":"OPAQUE","name":"tower3_1_red"}],"textures":[{"sampler":0,"source":0,"name":"tower3_3_red.bmp"}],"images":[{"uri":"tower3_3_red.bmp"}],"samplers":[{"magFilter":9729,"minFilter":9987,"wrapS":10497,"wrapT":10497}]}