{"asset":{"version":"2.0","generator":"babylon.js glTF exporter for 3ds max 2019 v1.3.33"},"scene":0,"scenes":[{"nodes":[0,1],"extensions":{}}],"nodes":[{"mesh":0,"translation":[0.0,0.0,0.0],"rotation":[1.54543134E-08,-0.7071068,-1.545431E-08,0.7071067],"scale":[6.39758158,6.39758158,6.39758444],"name":"build14_2"},{"translation":[0.0,0.0,0.0],"rotation":[0.0,0.0,0.0,1.0],"scale":[1.0,1.0,1.0],"name":"Default light"}],"meshes":[{"primitives":[{"attributes":{"POSITION":1,"NORMAL":2,"COLOR_0":3,"TEXCOORD_0":4},"indices":0,"mode":4,"material":0}],"name":"build14_2"}],"accessors":[{"bufferView":0,"componentType":5123,"count":2535,"type":"SCALAR","name":"accessorIndices"},{"bufferView":1,"componentType":5126,"count":2535,"max":[0.7710416,0.944042444,0.7493171],"min":[-0.77104187,-0.005420703,-0.74931705],"type":"VEC3","name":"accessorPositions"},{"bufferView":1,"byteOffset":30420,"componentType":5126,"count":2535,"type":"VEC3","name":"accessorNormals"},{"bufferView":2,"componentType":5126,"count":2535,"type":"VEC4","name":"accessorColors"},{"bufferView":3,"componentType":5126,"count":2535,"type":"VEC2","name":"accessorUVs"}],"bufferViews":[{"buffer":0,"byteLength":5072,"name":"bufferViewScalar"},{"buffer":0,"byteOffset":5072,"byteLength":60840,"byteStride":12,"name":"bufferViewFloatVec3"},{"buffer":0,"byteOffset":65912,"byteLength":40560,"byteStride":16,"name":"bufferViewFloatVec4"},{"buffer":0,"byteOffset":106472,"byteLength":20280,"byteStride":8,"name":"bufferViewFloatVec2"}],"buffers":[{"uri":"scene.bin","byteLength":126752}],"materials":[{"pbrMetallicRoughness":{"baseColorFactor":[1.0,1.0,1.0,1.0],"baseColorTexture":{"index":0,"texCoord":0},"metallicFactor":0.1666668,"roughnessFactor":0.99},"emissiveFactor":[0.0,0.0,0.0],"alphaMode":"OPAQUE","name":"build14_3_red"}],"textures":[{"sampler":0,"source":0,"name":"build14_3_RED.bmp"}],"images":[{"uri":"build14_3_RED.bmp"}],"samplers":[{"magFilter":9729,"minFilter":9987,"wrapS":10497,"wrapT":10497}]}