{"asset":{"version":"2.0","generator":"babylon.js glTF exporter for 3ds max 2019 v1.3.33"},"scene":0,"scenes":[{"nodes":[0,1],"extensions":{}}],"nodes":[{"mesh":0,"translation":[-30.943512,-2.77555756E-17,-17.8041687],"rotation":[0.0,0.0,0.0,1.0],"scale":[1.12598014,1.12598014,1.12598014],"name":"NaTaSha"},{"translation":[0.0,0.0,0.0],"rotation":[0.0,0.0,0.0,1.0],"scale":[1.0,1.0,1.0],"name":"Default light"}],"meshes":[{"primitives":[{"attributes":{"POSITION":1,"NORMAL":2,"TEXCOORD_0":3},"indices":0,"mode":4,"material":0}],"name":"NaTaSha"}],"accessors":[{"bufferView":0,"componentType":5123,"count":5388,"type":"SCALAR","name":"accessorIndices"},{"bufferView":1,"componentType":5126,"count":5388,"max":[0.549121857,1.77214885,0.485383034],"min":[-0.929548264,5.408469E-09,-0.3908615],"type":"VEC3","name":"accessorPositions"},{"bufferView":1,"byteOffset":64656,"componentType":5126,"count":5388,"type":"VEC3","name":"accessorNormals"},{"bufferView":2,"componentType":5126,"count":5388,"type":"VEC2","name":"accessorUVs"}],"bufferViews":[{"buffer":0,"byteLength":10776,"name":"bufferViewScalar"},{"buffer":0,"byteOffset":10776,"byteLength":129312,"byteStride":12,"name":"bufferViewFloatVec3"},{"buffer":0,"byteOffset":140088,"byteLength":43104,"byteStride":8,"name":"bufferViewFloatVec2"}],"buffers":[{"uri":"nts.bin","byteLength":183192}],"materials":[{"pbrMetallicRoughness":{"baseColorFactor":[1.0,1.0,1.0,1.0],"baseColorTexture":{"index":0,"texCoord":0},"metallicFactor":0.1666668,"roughnessFactor":0.5678072},"emissiveFactor":[0.0,0.0,0.0],"alphaMode":"OPAQUE","name":"NaTaSha"}],"textures":[{"sampler":0,"source":0,"name":"NaTaSha.bmp"}],"images":[{"uri":"NaTaSha.bmp"}],"samplers":[{"magFilter":9729,"minFilter":9987,"wrapS":10497,"wrapT":10497}]}