{"asset":{"version":"2.0","generator":"babylon.js glTF exporter for 3ds max 2019 v1.3.33"},"scene":0,"scenes":[{"nodes":[0,1],"extensions":{}}],"nodes":[{"mesh":0,"translation":[0.0,0.0,0.0],"rotation":[0.0,0.0,0.0,1.0],"scale":[0.00888986,0.00888986,0.00888986],"name":"objdefault"},{"translation":[0.0,0.0,0.0],"rotation":[0.0,0.0,0.0,1.0],"scale":[1.0,1.0,1.0],"name":"Default light"}],"meshes":[{"primitives":[{"attributes":{"POSITION":1,"NORMAL":2,"TEXCOORD_0":3,"TEXCOORD_1":4},"indices":0,"mode":4,"material":0}],"name":"objdefault"}],"accessors":[{"bufferView":0,"componentType":5123,"count":84,"type":"SCALAR","name":"accessorIndices"},{"bufferView":1,"componentType":5126,"count":84,"max":[65.4219,183.253952,63.9096336],"min":[-60.40484,6.0889554,-57.70463],"type":"VEC3","name":"accessorPositions"},{"bufferView":1,"byteOffset":1008,"componentType":5126,"count":84,"type":"VEC3","name":"accessorNormals"},{"bufferView":2,"componentType":5126,"count":84,"type":"VEC2","name":"accessorUVs"},{"bufferView":2,"byteOffset":672,"componentType":5126,"count":84,"type":"VEC2","name":"accessorUV2s"}],"bufferViews":[{"buffer":0,"byteLength":168,"name":"bufferViewScalar"},{"buffer":0,"byteOffset":168,"byteLength":2016,"byteStride":12,"name":"bufferViewFloatVec3"},{"buffer":0,"byteOffset":2184,"byteLength":1344,"byteStride":8,"name":"bufferViewFloatVec2"}],"buffers":[{"uri":"yt.bin","byteLength":3528}],"materials":[{"pbrMetallicRoughness":{"baseColorFactor":[1.0,1.0,1.0,1.0],"baseColorTexture":{"index":0,"texCoord":0},"metallicFactor":0.1666668,"roughnessFactor":0.5678072},"emissiveFactor":[0.0,0.0,0.0],"alphaMode":"OPAQUE","name":"CJ_youtong_01"}],"textures":[{"sampler":0,"source":0,"name":"CJ_youtong_01.bmp"}],"images":[{"uri":"CJ_youtong_01.bmp"}],"samplers":[{"magFilter":9729,"minFilter":9987,"wrapS":10497,"wrapT":10497}]}