{"asset":{"version":"2.0","generator":"babylon.js glTF exporter for 3ds max 2019 v1.3.33"},"scene":0,"scenes":[{"nodes":[0,1,41],"extensions":{}}],"nodes":[{"skin":0,"mesh":0,"translation":[0.0,0.0,0.0],"rotation":[0.0,0.0,0.0,1.0],"scale":[1.0,1.0,1.0],"name":"smdimport"},{"children":[2],"translation":[0.0,39.264595,1.141865],"rotation":[0.0,-0.7071063,0.0,0.707107246],"scale":[0.99999994,1.0,0.99999994],"name":"Bip01"},{"children":[3,31,35,39,40],"translation":[-0.149474978,0.07819748,1.13686838E-13],"rotation":[-0.499999762,-0.499999762,0.500000238,0.500000358],"scale":[1.0,1.0,1.0],"name":"Bip01 Pelvis"},{"children":[4],"translation":[3.45265579,9.999999E-07,-0.545245945],"rotation":[-1.90717253E-06,0.000369500049,4.7754196E-07,0.9999999],"scale":[0.999999762,1.0,0.999999762],"name":"Bip01 Spine"},{"children":[5],"translation":[4.11860657,0.0,0.0032800436],"rotation":[3.74700228E-15,1.74999277E-05,-8.526512E-14,1.0],"scale":[1.00000012,1.0,1.00000012],"name":"Bip01 Spine1"},{"children":[6],"translation":[4.11860275,0.0,0.0032800436],"rotation":[1.6611712E-14,2.44999828E-05,-1.42108547E-14,1.0],"scale":[1.0,1.0,1.0],"name":"Bip01 Spine2"},{"children":[7],"translation":[4.11860275,-1.8189894E-12,0.00306999683],"rotation":[4.16194822E-14,-4.52995255E-06,-7.10542736E-14,1.0],"scale":[1.00000012,1.0,1.00000012],"name":"Bip01 Spine3"},{"children":[8,9,20],"translation":[3.7530365,-1.0000058E-06,0.338093042],"rotation":[6.223971E-08,0.130526021,4.72757847E-07,0.9914449],"scale":[1.0,1.0,1.0],"name":"Bip01 Neck"},{"translation":[2.15164566,-7.275958E-12,0.0],"rotation":[3.92305342E-14,-0.087562345,0.0,0.996158957],"scale":[1.0,1.0,1.0],"name":"Bip01 Head"},{"children":[10],"translation":[-2.05480576,1.91485786,0.4127922],"rotation":[0.7010206,0.7010206,0.0925749242,0.09257513],"scale":[1.0,1.00000036,1.00000036],"name":"Bip01 L Clavicle"},{"children":[11,17],"translation":[3.2654953,3.81469727E-06,0.0],"rotation":[-0.000799459638,-0.00287398673,-0.506555,0.8622025],"scale":[1.0,0.999999762,0.999999762],"name":"Bip01 L UpperArm"},{"children":[12],"translation":[9.162685,0.0,0.0],"rotation":[-5.82190962E-10,-0.0198086668,-2.23561276E-08,0.999803841],"scale":[1.0,1.0,0.99999994],"name":"Bip01 L Forearm"},{"children":[13,15],"translation":[9.616838,-3.81469727E-06,-2.38418579E-07],"rotation":[-0.707329154,0.0154639306,-0.015417194,0.706547],"scale":[0.999999762,1.0,1.0],"name":"Bip01 L Hand"},{"children":[14],"translation":[1.8700943,-1.59024048,-0.5183182],"rotation":[0.6328866,0.20903714,0.0279993713,0.744965851],"scale":[1.0,1.0,1.0],"name":"Bip01 L Finger0"},{"translation":[2.12006,0.0,-4.76837158E-07],"rotation":[-4.71212669E-09,0.153046682,0.0,0.9882189],"scale":[1.00000012,1.00000012,1.0],"name":"Bip01 L Finger01"},{"children":[16],"translation":[3.41236877,-0.643887043,0.4828987],"rotation":[0.142038688,0.01132211,-0.07864821,0.986666739],"scale":[0.9999998,0.9999999,1.00000012],"name":"Bip01 L Finger1"},{"translation":[1.897419,7.15255737E-07,-3.81469727E-06],"rotation":[-5.08308329E-09,0.173648253,-3.78275944E-09,0.9848077],"scale":[0.99999994,0.99999994,0.9999999],"name":"Bip01 L Finger11"},{"children":[18],"translation":[9.162685,0.0,0.0],"rotation":[-0.000110365974,-0.0198086649,-2.21325672E-06,0.999803841],"scale":[1.0,1.00000012,0.99999994],"name":"Bip01 L ForeTwist"},{"children":[19],"translation":[2.404213,0.0,0.0],"rotation":[-0.000110388268,1.86264515E-09,-2.98023224E-08,1.0],"scale":[1.0,1.0,1.0],"name":"Bip01 L ForeTwist1"},{"translation":[2.40420914,3.81469727E-06,0.0],"rotation":[-0.000110387817,0.0,1.4901163E-08,1.0],"scale":[0.99999994,0.9999999,0.9999999],"name":"Bip01 L ForeTwist2"},{"children":[21],"translation":[-2.054802,-1.91486013,0.412781715],"rotation":[-0.7010206,0.7010206,-0.0925749242,0.09257513],"scale":[1.0,1.00000036,1.00000036],"name":"Bip01 R Clavicle"},{"children":[22,28],"translation":[3.2654953,-3.81469727E-06,2.98023224E-08],"rotation":[0.0007995025,-0.00287396275,0.506555,0.8622025],"scale":[1.0,0.999999762,0.999999762],"name":"Bip01 R UpperArm"},{"children":[23],"translation":[9.162682,0.0,5.96046448E-08],"rotation":[1.63013414E-09,-0.0198086668,7.45204254E-09,0.999803841],"scale":[1.0,1.0,1.00000012],"name":"Bip01 R Forearm"},{"children":[24,26],"translation":[9.616842,0.0,-2.38418579E-07],"rotation":[0.7073292,0.0154638905,0.0154171633,0.706546962],"scale":[1.0,1.00000024,1.0],"name":"Bip01 R Hand"},{"children":[25],"translation":[1.87009048,1.59023952,-0.5183182],"rotation":[-0.632886767,0.209037155,-0.0279992912,0.7449657],"scale":[1.0,1.0,0.9999999],"name":"Bip01 R Finger0"},{"translation":[2.12004852,0.0,-4.76837158E-07],"rotation":[-3.76970144E-09,0.153046682,3.76970144E-09,0.9882189],"scale":[0.9999998,1.0,0.9999999],"name":"Bip01 R Finger01"},{"children":[27],"translation":[3.41236687,0.6438868,0.48290062],"rotation":[-0.142038733,0.0113220857,0.07864821,0.986666739],"scale":[0.9999999,0.9999998,1.0],"name":"Bip01 R Finger1"},{"translation":[1.89741707,2.38418579E-07,0.0],"rotation":[2.36422382E-10,0.173648268,-9.456899E-10,0.9848077],"scale":[0.99999994,1.00000012,1.0],"name":"Bip01 R Finger11"},{"children":[29],"translation":[9.162682,0.0,5.96046448E-08],"rotation":[0.000110478752,-0.0198086649,2.213257E-06,0.999803841],"scale":[1.00000012,1.0,1.0],"name":"Bip01 R ForeTwist"},{"children":[30],"translation":[2.40421677,3.81469727E-06,0.0],"rotation":[0.000110499095,1.110223E-16,-1.4901163E-08,1.0],"scale":[1.0,0.9999999,1.00000012],"name":"Bip01 R ForeTwist1"},{"translation":[2.40420914,-3.81469727E-06,0.0],"rotation":[0.000110499554,1.862645E-09,-7.450581E-09,1.0],"scale":[1.0,1.0,1.00000012],"name":"Bip01 R ForeTwist2"},{"children":[32],"translation":[-3.81469727E-06,2.94322515,-6.020069E-06],"rotation":[0.0477848947,-0.00405267952,0.996133864,0.0736034],"scale":[1.0,0.99999994,1.0],"name":"Bip01 L Thigh"},{"children":[33],"translation":[17.085659,9.536743E-07,4.76837158E-07],"rotation":[4.19123E-09,-0.0115187066,-7.45108E-09,0.9999336],"scale":[1.00000012,0.9999998,1.0],"name":"Bip01 L Calf"},{"children":[34],"translation":[18.0731125,9.536743E-07,2.38418579E-07],"rotation":[0.0049011833,0.05925625,0.07355236,0.9955173],"scale":[0.9999997,1.0,0.99999994],"name":"Bip01 L Foot"},{"translation":[3.496044,-0.144696236,-3.80529976],"rotation":[-0.0106068151,0.7123104,-0.0151180588,0.701621652],"scale":[0.99999994,0.9999999,1.0],"name":"Bip01 L Toe0"},{"children":[36],"translation":[3.81469727E-06,-2.94322467,1.90734863E-06],"rotation":[0.04778522,0.004054094,0.996133745,-0.07360537],"scale":[1.0,1.00000012,0.999999762],"name":"Bip01 R Thigh"},{"children":[37],"translation":[17.0856667,0.0,0.0],"rotation":[4.65692263E-10,-0.0115187066,4.441187E-16,0.9999336],"scale":[1.0,0.99999994,1.0],"name":"Bip01 R Calf"},{"children":[38],"translation":[18.07311,-9.536743E-07,-4.76837158E-07],"rotation":[-0.00490111159,0.059256237,-0.07355231,0.9955173],"scale":[1.00000012,1.00000012,1.00000012],"name":"Bip01 R Foot"},{"translation":[3.496044,0.144696236,-3.80530024],"rotation":[0.01060717,0.712310731,0.015118449,0.701621234],"scale":[1.0,0.9999999,1.0],"name":"Bip01 R Toe0"},{"translation":[1.2863121,0.08813,4.36914444],"rotation":[0.05252815,0.05252815,0.7051529,0.7051531],"scale":[1.0,0.9999999,0.99999994],"name":"Skult_Back"},{"translation":[-0.147361755,0.08811001,-4.24072027],"rotation":[0.004519442,0.004519442,0.7070922,0.707092464],"scale":[1.0,0.9999999,0.9999998],"name":"Skult_Front"},{"translation":[0.0,0.0,0.0],"rotation":[0.0,0.0,0.0,1.0],"scale":[1.0,1.0,1.0],"name":"Default light"}],"meshes":[{"primitives":[{"attributes":{"POSITION":1,"NORMAL":2,"TEXCOORD_0":3,"JOINTS_0":4,"WEIGHTS_0":5},"indices":0,"mode":4,"material":0}],"name":"smdimport"}],"accessors":[{"bufferView":0,"componentType":5123,"count":5100,"type":"SCALAR","name":"accessorIndices"},{"bufferView":1,"componentType":5126,"count":5100,"max":[17.6957,68.9586,6.64090061],"min":[-17.705101,1.29239559,-4.57970047],"type":"VEC3","name":"accessorPositions"},{"bufferView":1,"byteOffset":61200,"componentType":5126,"count":5100,"type":"VEC3","name":"accessorNormals"},{"bufferView":2,"componentType":5126,"count":5100,"type":"VEC2","name":"accessorUVs"},{"bufferView":3,"componentType":5123,"count":5100,"type":"VEC4","name":"accessorJoints"},{"bufferView":4,"componentType":5126,"count":5100,"type":"VEC4","name":"accessorWeights"},{"bufferView":5,"componentType":5126,"count":40,"type":"MAT4","name":"accessorInverseBindMatrices"}],"bufferViews":[{"buffer":0,"byteLength":10200,"name":"bufferViewScalar"},{"buffer":0,"byteOffset":10200,"byteLength":122400,"byteStride":12,"name":"bufferViewFloatVec3"},{"buffer":0,"byteOffset":132600,"byteLength":40800,"byteStride":8,"name":"bufferViewFloatVec2"},{"buffer":0,"byteOffset":173400,"byteLength":40800,"byteStride":8,"name":"bufferViewUnsignedShortVec4"},{"buffer":0,"byteOffset":214200,"byteLength":81600,"byteStride":16,"name":"bufferViewFloatVec4"},{"buffer":0,"byteOffset":295800,"byteLength":2560,"name":"bufferViewFloatMat4"}],"buffers":[{"uri":"bobby.bin","byteLength":298360}],"materials":[{"pbrMetallicRoughness":{"baseColorFactor":[1.0,1.0,1.0,1.0],"baseColorTexture":{"index":0,"texCoord":0},"metallicFactor":0.0,"roughnessFactor":0.9},"emissiveFactor":[0.0,0.0,0.0],"alphaMode":"BLEND","name":"Material #2"}],"textures":[{"sampler":0,"source":0,"name":"Speed_zombi_host.png"}],"images":[{"uri":"Speed_zombi_host.png"}],"samplers":[{"magFilter":9729,"minFilter":9987,"wrapS":10497,"wrapT":10497}],"skins":[{"inverseBindMatrices":6,"skeleton":1,"joints":[1,2,3,4,5,6,7,8,9,10,11,12,13,14,15,16,17,18,19,20,21,22,23,24,25,26,27,28,29,30,31,32,33,34,35,36,37,38,39,40],"name":"skeleton #0"}]}