{"asset":{"version":"2.0","generator":"babylon.js glTF exporter for 3ds max 2019 v1.3.33"},"scene":0,"scenes":[{"nodes":[0,1,25],"extensions":{}}],"nodes":[{"skin":0,"mesh":0,"translation":[0.0,0.0,0.0],"rotation":[0.0,0.0,0.0,1.0],"scale":[1.0,1.0,1.0],"name":"female_zombi_v1"},{"children":[2],"translation":[0.00353559526,0.9501832,0.0181601252],"rotation":[0.0,0.707107365,0.0,0.7071062],"scale":[0.99999994,1.0,0.99999994],"name":"Bip01"},{"children":[3],"translation":[0.0,0.0,0.0],"rotation":[-0.4999993,-0.5,0.5,0.5000007],"scale":[1.0,1.0,1.0],"name":"Bip01 Pelvis"},{"children":[4,17,21],"translation":[0.04575354,2.28174031E-08,-0.0140532777],"rotation":[-2.13112185E-06,0.0811351,8.511504E-07,0.9967031],"scale":[0.99999994,1.0,0.99999994],"name":"Bip01 Spine"},{"children":[5],"translation":[0.2180925,-4.656613E-10,0.000203236938],"rotation":[-2.03151718E-08,-0.115684018,-4.7393786E-07,0.9932861],"scale":[1.0,1.0,1.0],"name":"Bip01 Spine1"},{"children":[6,7,11],"translation":[0.325012565,-2.77068466E-08,0.0200321451],"rotation":[-2.40342278E-14,0.06663054,1.8480651E-07,0.99777776],"scale":[1.0,1.0,1.0],"name":"Bip01 Neck"},{"translation":[0.0629251,0.0,-7.450581E-09],"rotation":[1.47319179E-08,0.0526983626,1.966319E-07,0.9986105],"scale":[1.0,1.0,1.0],"name":"Bip01 Head"},{"children":[8],"translation":[-0.08919668,0.0689929947,-0.0025229156],"rotation":[0.705516636,0.7055165,0.0473968163,0.04739485],"scale":[1.0,1.0,0.9999999],"name":"Bip01 L Clavicle"},{"children":[9],"translation":[0.109070309,0.0,-7.450581E-09],"rotation":[-0.051613126,-0.0043273503,-0.339168,0.9392989],"scale":[0.99999994,1.0,1.00000012],"name":"Bip01 L UpperArm"},{"children":[10],"translation":[0.297246039,0.0,0.0],"rotation":[-3.74133124E-09,-0.09250259,-7.48266249E-09,0.9957125],"scale":[1.0,1.0,1.00000012],"name":"Bip01 L Forearm"},{"translation":[0.210072488,0.0,-2.98023224E-08],"rotation":[-0.6175383,-0.0434366725,0.0497181676,0.783765137],"scale":[0.9999999,1.00000012,0.99999994],"name":"Bip01 L Hand"},{"children":[12],"translation":[-0.09681296,-0.08807924,-0.00328010321],"rotation":[-0.7055165,0.705516636,-0.0473948568,0.0473968163],"scale":[1.0,0.99999994,0.9999999],"name":"Bip01 R Clavicle"},{"children":[13],"translation":[0.109070286,0.0,0.0],"rotation":[0.05161312,-0.004327398,0.339167953,0.9392989],"scale":[1.0,0.99999994,1.00000012],"name":"Bip01 R UpperArm"},{"children":[14],"translation":[0.29724595,0.0,1.49011612E-08],"rotation":[0.0,-0.09250259,1.49653232E-08,0.9957125],"scale":[1.00000012,1.00000012,1.00000012],"name":"Bip01 R Forearm"},{"children":[15],"translation":[0.2100726,1.1920929E-07,-2.98023224E-08],"rotation":[0.6175383,-0.04343668,-0.0497181863,0.783765137],"scale":[0.99999994,1.00000012,1.00000012],"name":"Bip01 R Hand"},{"children":[16],"translation":[0.08178347,0.00719932467,-0.000709056854],"rotation":[-0.01017921,0.1677109,-0.0168088321,0.9856404],"scale":[0.9999997,0.99999994,1.00000012],"name":"Bip01 R Finger2"},{"translation":[0.04258749,-3.7252903E-09,1.1920929E-07],"rotation":[4.21704E-09,0.111061871,3.74848E-09,0.9938135],"scale":[1.0,1.0,1.0],"name":"Bip01 R Finger21"},{"children":[18],"translation":[-0.047424078,0.10663566,0.006468639],"rotation":[-0.121957496,-0.09226418,0.986685,0.05537527],"scale":[0.9999999,1.0,1.0],"name":"Bip01 L Thigh"},{"children":[19],"translation":[0.4618149,1.49011612E-08,-7.450581E-09],"rotation":[3.03332337E-09,-0.06555824,1.86666083E-09,0.997848749],"scale":[1.0,1.0,1.00000024],"name":"Bip01 L Calf"},{"children":[20],"translation":[0.395452231,-1.49011612E-08,0.0],"rotation":[0.02624072,0.0199462567,0.05823716,0.9977585],"scale":[1.0,0.9999998,0.99999994],"name":"Bip01 L Foot"},{"translation":[0.08318889,0.0006696284,-0.129811049],"rotation":[-8.024938E-16,0.7071067,1.2459105E-15,0.7071068],"scale":[0.99999994,1.00000012,0.9999999],"name":"Bip01 L Toe0"},{"children":[22],"translation":[-0.047424078,-0.10663566,0.006468028],"rotation":[-0.119723186,0.09123614,0.9870281,-0.05583706],"scale":[1.0,0.99999994,1.00000012],"name":"Bip01 R Thigh"},{"children":[23],"translation":[0.461814851,0.0,-7.450581E-09],"rotation":[9.971973E-09,-0.0608239025,3.732201E-09,0.998148561],"scale":[0.9999999,1.00000012,0.9999999],"name":"Bip01 R Calf"},{"children":[24],"translation":[0.395452261,0.0,1.86264515E-09],"rotation":[-0.109456338,0.0223762244,-0.0572580658,0.9920888],"scale":[1.0,0.9999998,1.0],"name":"Bip01 R Foot"},{"translation":[0.08318891,-0.0006696284,-0.129811049],"rotation":[-9.368574E-08,0.7071068,-3.275484E-08,0.7071067],"scale":[0.99999994,1.0,0.99999994],"name":"Bip01 R Toe0"},{"translation":[0.0,0.0,0.0],"rotation":[0.0,0.0,0.0,1.0],"scale":[1.0,1.0,1.0],"name":"Default light"}],"meshes":[{"primitives":[{"attributes":{"POSITION":1,"NORMAL":2,"TEXCOORD_0":3,"JOINTS_0":4,"WEIGHTS_0":5},"indices":0,"mode":4,"material":0}],"name":"female_zombi_v1"}],"accessors":[{"bufferView":0,"componentType":5123,"count":2484,"type":"SCALAR","name":"accessorIndices"},{"bufferView":1,"componentType":5126,"count":2484,"max":[0.713884,1.82697642,0.11245279],"min":[-0.683252752,-0.00152802467,-0.211089909],"type":"VEC3","name":"accessorPositions"},{"bufferView":1,"byteOffset":29808,"componentType":5126,"count":2484,"type":"VEC3","name":"accessorNormals"},{"bufferView":2,"componentType":5126,"count":2484,"type":"VEC2","name":"accessorUVs"},{"bufferView":3,"componentType":5123,"count":2484,"type":"VEC4","name":"accessorJoints"},{"bufferView":4,"componentType":5126,"count":2484,"type":"VEC4","name":"accessorWeights"},{"bufferView":5,"componentType":5126,"count":24,"type":"MAT4","name":"accessorInverseBindMatrices"}],"bufferViews":[{"buffer":0,"byteLength":4968,"name":"bufferViewScalar"},{"buffer":0,"byteOffset":4968,"byteLength":59616,"byteStride":12,"name":"bufferViewFloatVec3"},{"buffer":0,"byteOffset":64584,"byteLength":19872,"byteStride":8,"name":"bufferViewFloatVec2"},{"buffer":0,"byteOffset":84456,"byteLength":19872,"byteStride":8,"name":"bufferViewUnsignedShortVec4"},{"buffer":0,"byteOffset":104328,"byteLength":39744,"byteStride":16,"name":"bufferViewFloatVec4"},{"buffer":0,"byteOffset":144072,"byteLength":1536,"name":"bufferViewFloatMat4"}],"buffers":[{"uri":"female_zomb_v1.bin","byteLength":145608}],"materials":[{"pbrMetallicRoughness":{"baseColorFactor":[1.0,1.0,1.0,1.0],"baseColorTexture":{"index":0,"texCoord":0},"metallicFactor":0.0,"roughnessFactor":0.9},"emissiveFactor":[0.0,0.0,0.0],"alphaMode":"OPAQUE","name":"zombi-female_mat#01"}],"textures":[{"sampler":0,"source":0,"name":"zomb-f_01.jpg"}],"images":[{"uri":"zomb-f_01.jpg"}],"samplers":[{"magFilter":9729,"minFilter":9987,"wrapS":10497,"wrapT":10497}],"skins":[{"inverseBindMatrices":6,"skeleton":1,"joints":[1,2,3,4,5,6,7,8,9,10,11,12,13,14,15,16,17,18,19,20,21,22,23,24],"name":"skeleton #0"}]}