{"asset":{"version":"2.0","generator":"babylon.js glTF exporter for 3ds max 2019 v1.3.33"},"scene":0,"scenes":[{"nodes":[0,1,27],"extensions":{}}],"nodes":[{"skin":0,"mesh":0,"translation":[0.0,0.0,0.0292801615],"rotation":[0.0,0.0,0.0,1.0],"scale":[1.0,1.0,1.0],"name":"male_zomb_v03"},{"children":[2],"translation":[0.00353559526,1.00116158,0.0181601252],"rotation":[0.0,0.707107365,0.0,0.7071062],"scale":[0.99999994,1.0,0.99999994],"name":"Bip01"},{"children":[3],"translation":[0.0,0.0,0.0],"rotation":[-0.4999993,-0.5,0.5,0.5000007],"scale":[1.0,1.0,1.0],"name":"Bip01 Pelvis"},{"children":[4,19,23],"translation":[0.0482954979,2.44472176E-08,-0.0148340175],"rotation":[-2.13112185E-06,0.08113511,8.51150446E-07,0.9967031],"scale":[0.99999994,1.0,0.99999994],"name":"Bip01 Spine"},{"children":[5],"translation":[0.230208755,-4.656613E-10,0.000214532018],"rotation":[-2.0315202E-08,-0.115684018,-4.7393786E-07,0.9932861],"scale":[0.9999999,1.0,0.9999999],"name":"Bip01 Spine1"},{"children":[6,7,9],"translation":[0.343068838,-2.93366611E-08,0.0211450532],"rotation":[-2.22539137E-14,0.06663054,1.84806524E-07,0.99777776],"scale":[1.0,1.0,1.0],"name":"Bip01 Neck"},{"translation":[0.06642091,0.0,-7.450581E-09],"rotation":[1.473192E-08,0.0526983552,1.96631859E-07,0.9986105],"scale":[1.0,1.0,1.0],"name":"Bip01 Head"},{"children":[8],"translation":[-0.09415197,0.07282596,-0.00266306847],"rotation":[0.705516636,0.7055165,0.0473968163,0.04739485],"scale":[1.0,1.0,0.9999999],"name":"Bip01 L Clavicle"},{"translation":[0.115129761,1.1920929E-07,1.49011612E-08],"rotation":[-0.0516131334,-0.00432735449,-0.339168,0.9392989],"scale":[0.99999994,1.0,1.00000012],"name":"Bip01 L UpperArm"},{"children":[10],"translation":[-0.102191329,-0.0929725245,-0.00346231461],"rotation":[-0.7055165,0.705516636,-0.0473948568,0.0473968163],"scale":[1.0,0.99999994,0.9999999],"name":"Bip01 R Clavicle"},{"children":[11],"translation":[0.115129746,0.0,7.450581E-09],"rotation":[0.051613126,-0.004327402,0.339167953,0.9392989],"scale":[1.0,0.99999994,1.00000012],"name":"Bip01 R UpperArm"},{"children":[12],"translation":[0.313759685,1.1920929E-07,0.0],"rotation":[-3.74133124E-09,-0.09250256,0.0,0.9957125],"scale":[1.00000012,1.00000012,1.0],"name":"Bip01 R Forearm"},{"children":[13,15,17],"translation":[0.221743315,2.38418579E-07,-2.98023224E-08],"rotation":[0.6175383,-0.0434366725,-0.04971819,0.783765137],"scale":[0.9999998,0.9999999,0.99999994],"name":"Bip01 R Hand"},{"children":[14],"translation":[0.086327076,0.00759926438,-0.0007485151],"rotation":[-0.010179216,0.1677109,-0.0168088321,0.9856404],"scale":[0.9999998,1.0,1.00000024],"name":"Bip01 R Finger2"},{"translation":[0.0449534655,-1.11758709E-08,0.0],"rotation":[1.40568035E-09,0.111061871,-9.371199E-10,0.9938135],"scale":[1.0,0.99999994,1.0],"name":"Bip01 R Finger21"},{"children":[16],"translation":[0.08634162,0.02776026,-0.00611531734],"rotation":[0.004751363,0.169754118,0.07113156,0.9829045],"scale":[1.00000036,1.00000012,1.00000012],"name":"Bip01 R Finger1"},{"translation":[0.04067418,-2.23517418E-08,0.0],"rotation":[1.86554217E-09,0.0557123236,7.462171E-09,0.9984469],"scale":[0.99999994,0.99999994,1.0],"name":"Bip01 R Finger11"},{"children":[18],"translation":[0.0205725431,0.0304071158,-0.00705134869],"rotation":[-0.6824993,-0.09101776,0.407548875,0.5998454],"scale":[0.9999998,1.0000006,1.0],"name":"Bip01 R Finger0"},{"translation":[0.04274416,0.0,2.98023224E-08],"rotation":[-3.816222E-09,0.21699661,-7.632444E-09,0.9761723],"scale":[1.0,1.0,1.0],"name":"Bip01 R Finger01"},{"children":[20],"translation":[-0.0500587821,0.11255987,0.00682801],"rotation":[-0.121957161,-0.0922642052,0.986685038,0.0553752333],"scale":[0.9999998,1.00000012,0.99999994],"name":"Bip01 L Thigh"},{"children":[21],"translation":[0.487471253,0.0,-7.450581E-09],"rotation":[-3.1499896E-09,-0.06555597,1.8666606E-09,0.997848868],"scale":[1.0,0.99999994,1.00000012],"name":"Bip01 L Calf"},{"children":[22],"translation":[0.417421877,0.0,0.0],"rotation":[0.0262406245,0.01994433,0.0582372136,0.9977585],"scale":[1.0,0.999999762,0.9999998],"name":"Bip01 L Foot"},{"translation":[0.0878105,0.0007068068,-0.137022778],"rotation":[-8.024938E-16,0.7071067,1.2459105E-15,0.7071068],"scale":[0.99999994,1.00000012,0.9999999],"name":"Bip01 L Toe0"},{"children":[24],"translation":[-0.0500587821,-0.112559855,0.00682736933],"rotation":[-0.119724795,0.091236,0.987027943,-0.0558372028],"scale":[0.99999994,0.99999994,0.99999994],"name":"Bip01 R Thigh"},{"children":[25],"translation":[0.487471282,0.0,0.0],"rotation":[-2.2159945E-09,-0.06082665,-3.73220166E-09,0.9981483],"scale":[0.9999999,0.99999994,0.9999999],"name":"Bip01 R Calf"},{"children":[26],"translation":[0.417421877,0.0,0.0],"rotation":[-0.109456427,0.0223772489,-0.057257928,0.9920887],"scale":[1.0,0.99999994,1.0],"name":"Bip01 R Foot"},{"translation":[0.0878105,-0.0007068217,-0.137022763],"rotation":[-3.0056686E-08,0.7071068,3.00566825E-08,0.7071067],"scale":[0.99999994,1.0,0.99999994],"name":"Bip01 R Toe0"},{"translation":[0.0,0.0,0.0],"rotation":[0.0,0.0,0.0,1.0],"scale":[1.0,1.0,1.0],"name":"Default light"}],"meshes":[{"primitives":[{"attributes":{"POSITION":1,"NORMAL":2,"TEXCOORD_0":3,"JOINTS_0":4,"WEIGHTS_0":5},"indices":0,"mode":4,"material":0}],"name":"male_zomb_v03"}],"accessors":[{"bufferView":0,"componentType":5123,"count":2280,"type":"SCALAR","name":"accessorIndices"},{"bufferView":1,"componentType":5126,"count":736,"max":[0.7379636,1.89957416,0.12234018],"min":[-0.287801027,0.0129257217,-0.20201388],"type":"VEC3","name":"accessorPositions"},{"bufferView":1,"byteOffset":8832,"componentType":5126,"count":736,"type":"VEC3","name":"accessorNormals"},{"bufferView":2,"componentType":5126,"count":736,"type":"VEC2","name":"accessorUVs"},{"bufferView":3,"componentType":5123,"count":736,"type":"VEC4","name":"accessorJoints"},{"bufferView":4,"componentType":5126,"count":736,"type":"VEC4","name":"accessorWeights"},{"bufferView":5,"componentType":5126,"count":26,"type":"MAT4","name":"accessorInverseBindMatrices"}],"bufferViews":[{"buffer":0,"byteLength":4560,"name":"bufferViewScalar"},{"buffer":0,"byteOffset":4560,"byteLength":17664,"byteStride":12,"name":"bufferViewFloatVec3"},{"buffer":0,"byteOffset":22224,"byteLength":5888,"byteStride":8,"name":"bufferViewFloatVec2"},{"buffer":0,"byteOffset":28112,"byteLength":5888,"byteStride":8,"name":"bufferViewUnsignedShortVec4"},{"buffer":0,"byteOffset":34000,"byteLength":11776,"byteStride":16,"name":"bufferViewFloatVec4"},{"buffer":0,"byteOffset":45776,"byteLength":1664,"name":"bufferViewFloatMat4"}],"buffers":[{"uri":"male_zomb_v3.bin","byteLength":47440}],"materials":[{"pbrMetallicRoughness":{"baseColorFactor":[1.0,1.0,1.0,1.0],"baseColorTexture":{"index":0,"texCoord":0},"metallicFactor":0.0,"roughnessFactor":0.9},"emissiveFactor":[0.0,0.0,0.0],"alphaMode":"OPAQUE","name":"male_zomb_mat#10"}],"textures":[{"sampler":0,"source":0,"name":"male_zom_t10.jpg"}],"images":[{"uri":"male_zom_t10.jpg"}],"samplers":[{"magFilter":9729,"minFilter":9987,"wrapS":10497,"wrapT":10497}],"skins":[{"inverseBindMatrices":6,"skeleton":1,"joints":[1,2,3,4,5,6,7,8,9,10,11,12,13,14,15,16,17,18,19,20,21,22,23,24,25,26],"name":"skeleton #0"}]}